<svg width="18" height="18" viewBox="0 0 18 18" fill="none" xmlns="http://www.w3.org/2000/svg">
<path d="M14.7998 15.1853H10.0171C9.70659 15.1853 9.45459 14.9333 9.45459 14.6228C9.45459 14.3123 9.70659 14.0603 10.0171 14.0603H14.7998C15.1103 14.0603 15.3623 14.3123 15.3623 14.6228C15.3623 14.9333 15.1103 15.1853 14.7998 15.1853Z" fill="#050B20"/>
<path fill-rule="evenodd" clip-rule="evenodd" d="M12.0436 8.39385L12.964 7.16767C13.42 6.56017 13.612 5.81168 13.5048 5.05942C13.3975 4.30717 13.0045 3.64267 12.397 3.18667C11.1438 2.24617 9.35727 2.49892 8.41602 3.75367L3.35201 10.4999C1.84301 12.5122 3.18551 14.9092 3.24326 15.0104C3.32126 15.1462 3.45251 15.2429 3.60551 15.2782C3.64901 15.2887 4.06901 15.3817 4.65476 15.3817C5.60201 15.3817 6.98051 15.1394 7.90002 13.9139L11.9265 8.54993C11.9499 8.52788 11.9717 8.50358 11.9916 8.47703C12.0117 8.4504 12.029 8.42258 12.0436 8.39385ZM4.10801 14.2214C4.69376 14.2927 6.17126 14.3429 7.00001 13.2382L10.7471 8.24633L7.99857 6.18272L4.25126 11.1749C3.40601 12.3029 3.87101 13.6837 4.10801 14.2214ZM8.67372 5.28337L11.4226 7.34636L12.064 6.49192C12.6333 5.73443 12.4795 4.65517 11.722 4.08592C10.9638 3.51817 9.88377 3.67193 9.31527 4.42867L8.67372 5.28337Z" fill="#050B20"/>
</svg>
