<svg width="18" height="18" viewBox="0 0 18 18" fill="none" xmlns="http://www.w3.org/2000/svg">
<path fill-rule="evenodd" clip-rule="evenodd" d="M7.06907 7.69033C7.37819 7.65943 7.65382 7.88496 7.68472 8.19411L8.05972 11.9441C8.0907 12.2532 7.8651 12.5289 7.55602 12.5598C7.2469 12.5907 6.97124 12.3652 6.94033 12.056L6.56533 8.30601C6.53442 7.99693 6.75995 7.72123 7.06907 7.69033Z" fill="#050B20"/>
<path fill-rule="evenodd" clip-rule="evenodd" d="M10.931 7.69033C11.2401 7.72123 11.4656 7.99693 11.4347 8.30601L11.0597 12.056C11.0288 12.3652 10.7532 12.5907 10.444 12.5598C10.135 12.5289 9.90943 12.2532 9.94033 11.9441L10.3153 8.19411C10.3462 7.88496 10.6219 7.65943 10.931 7.69033Z" fill="#050B20"/>
<path fill-rule="evenodd" clip-rule="evenodd" d="M7.59285 0.937514H10.129C10.2913 0.937409 10.4327 0.937319 10.5662 0.958642C11.0936 1.04287 11.5501 1.37186 11.7968 1.84563C11.8592 1.96555 11.9039 2.09971 11.9551 2.2537L12.0388 2.50488C12.053 2.5474 12.057 2.55943 12.0605 2.56891C12.1918 2.932 12.5323 3.17744 12.9183 3.18723C12.9284 3.18748 12.9409 3.18753 12.9859 3.18753H15.2359C15.5466 3.18753 15.7984 3.43936 15.7984 3.75003C15.7984 4.06069 15.5466 4.31253 15.2359 4.31253H2.48584C2.17518 4.31253 1.92334 4.06069 1.92334 3.75003C1.92334 3.43936 2.17518 3.18753 2.48584 3.18753H4.73591C4.78094 3.18753 4.79336 3.18748 4.80352 3.18723C5.18951 3.17744 5.53002 2.93202 5.66136 2.56893C5.66481 2.55938 5.66879 2.54761 5.68303 2.50488L5.76673 2.25372C5.81796 2.09973 5.86259 1.96555 5.92503 1.84563C6.17174 1.37186 6.62819 1.04287 7.15566 0.958642C7.28918 0.937319 7.43057 0.937409 7.59285 0.937514ZM6.61695 3.18753C6.65558 3.11176 6.68982 3.03303 6.71927 2.95161C6.72821 2.92688 6.73699 2.90056 6.74825 2.86675L6.82311 2.64219C6.89149 2.43706 6.90723 2.39522 6.92285 2.36523C7.00508 2.2073 7.15724 2.09764 7.33306 2.06956C7.36646 2.06423 7.41111 2.06253 7.62735 2.06253H10.0945C10.3107 2.06253 10.3553 2.06423 10.3888 2.06956C10.5646 2.09764 10.7168 2.2073 10.799 2.36523C10.8146 2.39522 10.8303 2.43705 10.8987 2.64219L10.9735 2.86662L11.0026 2.95162C11.032 3.03304 11.0663 3.11176 11.1049 3.18753H6.61695Z" fill="#050B20"/>
<path fill-rule="evenodd" clip-rule="evenodd" d="M3.83761 5.81377C4.14757 5.7931 4.41561 6.02763 4.43628 6.3376L4.78123 11.5119C4.84862 12.5228 4.89664 13.2262 5.00207 13.7554C5.10433 14.2688 5.24708 14.5405 5.45215 14.7323C5.6572 14.9241 5.93782 15.0485 6.45682 15.1164C6.99187 15.1864 7.6969 15.1875 8.71 15.1875H9.29004C10.3031 15.1875 11.0081 15.1864 11.5432 15.1164C12.0622 15.0485 12.3428 14.9241 12.5479 14.7323C12.7529 14.5405 12.8957 14.2688 12.998 13.7554C13.1034 13.2262 13.1514 12.5228 13.2188 11.5119L13.5638 6.3376C13.5844 6.02763 13.8524 5.7931 14.1624 5.81377C14.4724 5.83443 14.7069 6.10246 14.6863 6.41244L14.3387 11.6262C14.2745 12.5883 14.2228 13.3654 14.1013 13.9752C13.975 14.6092 13.7602 15.1388 13.3165 15.5538C12.8728 15.9689 12.3301 16.148 11.6891 16.2319C11.0726 16.3125 10.2938 16.3125 9.32957 16.3125H8.67047C7.70627 16.3125 6.92743 16.3125 6.3109 16.2319C5.66991 16.148 5.12725 15.9689 4.68356 15.5538C4.23986 15.1388 4.02505 14.6092 3.89875 13.9752C3.77727 13.3654 3.72547 12.5883 3.66136 11.6262L3.31377 6.41244C3.2931 6.10246 3.52763 5.83443 3.83761 5.81377Z" fill="#050B20"/>
</svg>
