<svg width="18" height="18" viewBox="0 0 18 18" fill="none" xmlns="http://www.w3.org/2000/svg">
<g clip-path="url(#clip0_166_9804)">
<path d="M17.1729 8.42398L11.4339 2.70533L12.9403 1.20057C13.215 0.926139 13.2153 0.48092 12.9408 0.206209C12.6664 -0.068537 12.2212 -0.0687479 11.9465 0.205647L3.46178 8.68108C2.27645 9.0118 1.4043 10.1013 1.4043 11.3907C1.4043 11.779 1.71909 12.0938 2.10742 12.0938C2.49576 12.0938 2.81055 11.779 2.81055 11.3907C2.81055 10.845 3.12298 10.3709 3.57832 10.1379L9.52662 16.0658C10.0748 16.6135 10.7946 16.8872 11.5145 16.8871C12.2345 16.8871 12.9546 16.6131 13.5024 16.0654L17.1743 12.403C17.7056 11.8716 17.9982 11.1651 17.998 10.4137C17.9979 9.66218 17.7051 8.95583 17.1729 8.42398ZM16.1806 11.4079L12.5087 15.0704C11.9607 15.6184 11.0687 15.6186 10.5199 15.0703L5.41654 9.98443H13.2168C13.6052 9.98443 13.92 9.66964 13.92 9.2813C13.92 8.89297 13.6052 8.57818 13.2168 8.57818H5.55463L10.439 3.69919L16.1796 9.41947C16.4453 9.68504 16.5918 10.0382 16.5918 10.414C16.5919 10.7896 16.4456 11.1429 16.1806 11.4079Z" fill="#050B20"/>
<path d="M3.34591 14.0376C2.98812 13.5034 2.63431 13.0717 2.61941 13.0536C2.48585 12.8911 2.28651 12.7969 2.07617 12.7969C1.86583 12.7969 1.6665 12.8911 1.53294 13.0536C1.51803 13.0717 1.16422 13.5034 0.806434 14.0376C0.0853437 15.1143 0.00195312 15.6309 0.00195312 15.9258C0.00195312 17.0696 0.932469 18 2.07617 18C3.21988 18 4.15039 17.0696 4.15039 15.9258C4.15039 15.6309 4.067 15.1143 3.34591 14.0376ZM2.07617 16.5938C1.70784 16.5938 1.4082 16.2941 1.40817 15.9275C1.40831 15.9247 1.42666 15.6368 1.98079 14.8113C2.01268 14.7638 2.04453 14.7172 2.07617 14.6717C2.10778 14.7172 2.13966 14.7638 2.17155 14.8113C2.71605 15.6225 2.74326 15.9145 2.74414 15.9271C2.74344 16.2948 2.44405 16.5938 2.07617 16.5938Z" fill="#050B20"/>
</g>
<defs>
<clipPath id="clip0_166_9804">
<rect width="18" height="18" fill="white"/>
</clipPath>
</defs>
</svg>
