<svg width="18" height="18" viewBox="0 0 18 18" fill="none" xmlns="http://www.w3.org/2000/svg">
<g clip-path="url(#clip0_166_9741)">
<path d="M17.5366 7.26353L10.7365 0.463359C10.4377 0.164531 10.0404 0 9.61784 0H1.58203C0.709699 0 0 0.709699 0 1.58203V16.418C0 17.2903 0.709699 18 1.58203 18H10.0547C10.2544 18 10.437 17.8871 10.5264 17.7085C11.7299 15.3014 14.2379 13.7461 16.9159 13.7461H17.4727C17.7639 13.7461 18 13.51 18 13.2188V8.3822C18 7.95962 17.8354 7.56236 17.5366 7.26353ZM16.9453 12.6914H16.9159C15.4008 12.6914 13.9111 13.119 12.6079 13.9281C11.4018 14.6769 10.4145 15.7156 9.73617 16.9453H1.58203C1.29125 16.9453 1.05469 16.7087 1.05469 16.418V1.58203C1.05469 1.29125 1.29125 1.05469 1.58203 1.05469H9.61784C9.75867 1.05469 9.89111 1.10953 9.9907 1.20916L16.7908 8.0093C16.8904 8.10889 16.9453 8.24133 16.9453 8.3822V12.6914Z" fill="#050B20"/>
<path d="M15.7021 8.44741L9.5547 2.26491C9.45573 2.16534 9.32115 2.10938 9.18077 2.10938H2.63672C2.34548 2.10938 2.10938 2.34548 2.10938 2.63672V9C2.10938 9.29123 2.34548 9.52734 2.63672 9.52734H15.3281C15.6194 9.52734 15.8555 9.29123 15.8555 9V8.81923C15.8555 8.6799 15.8003 8.5462 15.7021 8.44741ZM3.16406 8.47266V3.16406H8.96143L14.2398 8.47266H3.16406Z" fill="#050B20"/>
<path d="M5.80078 11.6367H2.63672C2.34548 11.6367 2.10938 11.8728 2.10938 12.1641V12.6914C2.10938 13.8545 3.05564 14.8008 4.21875 14.8008C5.38186 14.8008 6.32812 13.8545 6.32812 12.6914V12.1641C6.32812 11.8728 6.09202 11.6367 5.80078 11.6367ZM4.21875 13.7461C3.6372 13.7461 3.16406 13.2694 3.16406 12.6879H5.27344C5.27344 13.2694 4.8003 13.7461 4.21875 13.7461Z" fill="#050B20"/>
</g>
<defs>
<clipPath id="clip0_166_9741">
<rect width="18" height="18" fill="white"/>
</clipPath>
</defs>
</svg>
