<svg width="18" height="18" viewBox="0 0 18 18" fill="none" xmlns="http://www.w3.org/2000/svg">
<path d="M6.59785 8.39805C6.43822 8.39805 6.28514 8.33464 6.17226 8.22176C6.05939 8.10889 5.99598 7.9558 5.99598 7.79617V5.99617C5.98787 5.91263 5.99733 5.82831 6.02375 5.74863C6.05017 5.66896 6.09296 5.59569 6.14938 5.53354C6.20579 5.47138 6.27458 5.42172 6.35134 5.38773C6.42809 5.35374 6.5111 5.33618 6.59504 5.33618C6.67898 5.33618 6.76199 5.35374 6.83874 5.38773C6.91549 5.42172 6.98429 5.47138 7.0407 5.53354C7.09712 5.59569 7.13991 5.66896 7.16633 5.74863C7.19275 5.82831 7.20221 5.91263 7.1941 5.99617V7.79617C7.19411 7.95483 7.13147 8.10707 7.01981 8.21979C6.90815 8.3325 6.7565 8.39657 6.59785 8.39805Z" fill="#050B20"/>
<path d="M9.00031 8.39808C8.84069 8.39808 8.6876 8.33467 8.57472 8.2218C8.46185 8.10892 8.39844 7.95584 8.39844 7.79621V5.39996C8.41288 5.25109 8.48223 5.11294 8.59298 5.01241C8.70373 4.91189 8.84793 4.8562 8.9975 4.8562C9.14707 4.8562 9.29127 4.91189 9.40202 5.01241C9.51277 5.11294 9.58212 5.25109 9.59656 5.39996V7.80183C9.5951 7.95951 9.53181 8.11032 9.4203 8.22182C9.3088 8.33333 9.15799 8.39662 9.00031 8.39808Z" fill="#050B20"/>
<path d="M11.4016 8.39823C11.2419 8.39823 11.0888 8.33482 10.976 8.22195C10.8631 8.10908 10.7997 7.95599 10.7997 7.79636V4.20198C10.7916 4.11844 10.801 4.03412 10.8275 3.95444C10.8539 3.87477 10.8967 3.8015 10.9531 3.73935C11.0095 3.67719 11.0783 3.62753 11.155 3.59354C11.2318 3.55955 11.3148 3.54199 11.3987 3.54199C11.4827 3.54199 11.5657 3.55955 11.6425 3.59354C11.7192 3.62753 11.788 3.67719 11.8444 3.73935C11.9008 3.8015 11.9436 3.87477 11.97 3.95444C11.9965 4.03412 12.0059 4.11844 11.9978 4.20198V7.80198C11.9963 7.95967 11.9331 8.11047 11.8216 8.22198C11.7101 8.33348 11.5592 8.39677 11.4016 8.39823Z" fill="#050B20"/>
<path d="M13.7979 18H4.20168C3.56467 18 2.95374 17.7469 2.5033 17.2965C2.05286 16.8461 1.79981 16.2351 1.79981 15.5981V4.725C1.79913 4.28481 1.89556 3.8499 2.08224 3.45126C2.26892 3.05262 2.54125 2.70007 2.87981 2.41875L4.94981 0.6975C5.48841 0.248662 6.16683 0.00196472 6.86793 0L13.7979 0C14.435 0 15.0459 0.253054 15.4963 0.703493C15.9468 1.15393 16.1998 1.76486 16.1998 2.40188V15.5981C16.1998 16.2351 15.9468 16.8461 15.4963 17.2965C15.0459 17.7469 14.435 18 13.7979 18ZM6.86793 1.19813C6.45646 1.20462 6.05954 1.35148 5.74293 1.61437L3.64481 3.34125C3.44182 3.5101 3.27859 3.72167 3.16678 3.96086C3.05496 4.20005 2.99731 4.46096 2.99793 4.725V15.5981C2.99941 15.9154 3.12612 16.2193 3.35049 16.4437C3.57486 16.6681 3.87875 16.7948 4.19606 16.7962H13.7979C14.1152 16.7948 14.4191 16.6681 14.6435 16.4437C14.8679 16.2193 14.9946 15.9154 14.9961 15.5981V2.40188C14.9946 2.08457 14.8679 1.78068 14.6435 1.55631C14.4191 1.33193 14.1152 1.20523 13.7979 1.20375L6.86793 1.19813Z" fill="#050B20"/>
<path d="M12.6002 14.3999H5.40023C5.31668 14.408 5.23236 14.3986 5.15268 14.3721C5.07301 14.3457 4.99974 14.3029 4.93759 14.2465C4.87543 14.1901 4.82577 14.1213 4.79178 14.0446C4.75779 13.9678 4.74023 13.8848 4.74023 13.8008C4.74023 13.7169 4.75779 13.6339 4.79178 13.5571C4.82577 13.4804 4.87543 13.4116 4.93759 13.3552C4.99974 13.2988 5.07301 13.256 5.15268 13.2296C5.23236 13.2031 5.31668 13.1937 5.40023 13.2018H12.6002C12.6838 13.1937 12.7681 13.2031 12.8478 13.2296C12.9274 13.256 13.0007 13.2988 13.0629 13.3552C13.125 13.4116 13.1747 13.4804 13.2087 13.5571C13.2427 13.6339 13.2602 13.7169 13.2602 13.8008C13.2602 13.8848 13.2427 13.9678 13.2087 14.0446C13.1747 14.1213 13.125 14.1901 13.0629 14.2465C13.0007 14.3029 12.9274 14.3457 12.8478 14.3721C12.7681 14.3986 12.6838 14.408 12.6002 14.3999Z" fill="#050B20"/>
<path d="M12.6002 11.4019H5.4002C5.25134 11.3874 5.11318 11.3181 5.01266 11.2073C4.91213 11.0966 4.85645 10.9524 4.85645 10.8028C4.85645 10.6532 4.91213 10.509 5.01266 10.3983C5.11318 10.2875 5.25134 10.2182 5.4002 10.2037H12.6002C12.6838 10.1956 12.7681 10.2051 12.8477 10.2315C12.9274 10.2579 13.0007 10.3007 13.0628 10.3571C13.125 10.4136 13.1747 10.4823 13.2086 10.5591C13.2426 10.6359 13.2602 10.7189 13.2602 10.8028C13.2602 10.8867 13.2426 10.9698 13.2086 11.0465C13.1747 11.1233 13.125 11.1921 13.0628 11.2485C13.0007 11.3049 12.9274 11.3477 12.8477 11.3741C12.7681 11.4005 12.6838 11.41 12.6002 11.4019Z" fill="#050B20"/>
</svg>
