<svg width="30" height="30" viewBox="0 0 30 30" fill="none" xmlns="http://www.w3.org/2000/svg">
<path d="M26.25 12.1875H27.1875C27.705 12.1875 28.125 11.7675 28.125 11.25C28.125 10.7325 27.705 10.3125 27.1875 10.3125H24.9056L23.4581 7.90031C22.6162 6.49688 21.0759 5.625 19.4391 5.625H10.5609C8.92406 5.625 7.38375 6.49688 6.54188 7.90031L5.09438 10.3125H2.8125C2.295 10.3125 1.875 10.7325 1.875 11.25C1.875 11.7675 2.295 12.1875 2.8125 12.1875H3.75L3.1875 12.9375C2.34094 14.0662 1.875 15.4641 1.875 16.875V21.5625C1.875 23.1131 3.13687 24.375 4.6875 24.375H6.5625C8.11312 24.375 9.375 23.1131 9.375 21.5625H20.625C20.625 23.1131 21.8869 24.375 23.4375 24.375H25.3125C26.8631 24.375 28.125 23.1131 28.125 21.5625V16.875C28.125 15.4641 27.6591 14.0653 26.8125 12.9375L26.25 12.1875ZM8.14969 8.86594C8.655 8.02406 9.57844 7.5 10.5609 7.5H19.44C20.4225 7.5 21.3459 8.02312 21.8512 8.86594L23.1112 10.9659L22.4597 11.4C21.6872 11.9147 20.7881 12.1875 19.8591 12.1875H10.14C9.21187 12.1875 8.31281 11.9156 7.54031 11.4009L6.88875 10.9659L8.14875 8.865L8.14969 8.86594ZM26.2509 21.5625C26.2509 22.0791 25.83 22.5 25.3134 22.5H23.4384C22.9219 22.5 22.5009 22.0791 22.5009 21.5625V20.625C22.5009 20.1075 22.0809 19.6875 21.5634 19.6875H8.4375C7.92 19.6875 7.5 20.1075 7.5 20.625V21.5625C7.5 22.0791 7.07906 22.5 6.5625 22.5H4.6875C4.17094 22.5 3.75 22.0791 3.75 21.5625V16.875C3.75 15.8672 4.08281 14.8678 4.6875 14.0625L5.8425 12.5222L6.50063 12.9609C7.5825 13.6819 8.84062 14.0625 10.14 14.0625H19.8591C21.1594 14.0625 22.4175 13.6809 23.4994 12.96L24.1566 12.5222L25.3116 14.0625C25.9163 14.8678 26.2491 15.8672 26.2491 16.875V21.5625H26.2509Z" fill="#405FF2"/>
<path d="M23.4375 17.8125C23.9553 17.8125 24.375 17.3928 24.375 16.875C24.375 16.3572 23.9553 15.9375 23.4375 15.9375C22.9197 15.9375 22.5 16.3572 22.5 16.875C22.5 17.3928 22.9197 17.8125 23.4375 17.8125Z" fill="#405FF2"/>
<path d="M6.5625 17.8125C7.08027 17.8125 7.5 17.3928 7.5 16.875C7.5 16.3572 7.08027 15.9375 6.5625 15.9375C6.04473 15.9375 5.625 16.3572 5.625 16.875C5.625 17.3928 6.04473 17.8125 6.5625 17.8125Z" fill="#405FF2"/>
</svg>
