<svg width="16" height="16" viewBox="0 0 16 16" fill="none" xmlns="http://www.w3.org/2000/svg">
<path fill-rule="evenodd" clip-rule="evenodd" d="M2.66634 1.5C1.65434 1.5 0.833008 2.32133 0.833008 3.33333C0.833008 4.34533 1.65434 5.16667 2.66634 5.16667C3.67834 5.16667 4.49967 4.34533 4.49967 3.33333C4.49967 2.32133 3.67834 1.5 2.66634 1.5ZM2.66634 2.5C3.12634 2.5 3.49967 2.87333 3.49967 3.33333C3.49967 3.79333 3.12634 4.16667 2.66634 4.16667C2.20634 4.16667 1.83301 3.79333 1.83301 3.33333C1.83301 2.87333 2.20634 2.5 2.66634 2.5Z" fill="#050B20"/>
<path fill-rule="evenodd" clip-rule="evenodd" d="M2.66634 10.8333C1.65434 10.8333 0.833008 11.6546 0.833008 12.6666C0.833008 13.6786 1.65434 14.4999 2.66634 14.4999C3.67834 14.4999 4.49967 13.6786 4.49967 12.6666C4.49967 11.6546 3.67834 10.8333 2.66634 10.8333ZM2.66634 11.8333C3.12634 11.8333 3.49967 12.2066 3.49967 12.6666C3.49967 13.1266 3.12634 13.4999 2.66634 13.4999C2.20634 13.4999 1.83301 13.1266 1.83301 12.6666C1.83301 12.2066 2.20634 11.8333 2.66634 11.8333Z" fill="#050B20"/>
<path fill-rule="evenodd" clip-rule="evenodd" d="M7.99935 1.5C6.98735 1.5 6.16602 2.32133 6.16602 3.33333C6.16602 4.34533 6.98735 5.16667 7.99935 5.16667C9.01135 5.16667 9.83268 4.34533 9.83268 3.33333C9.83268 2.32133 9.01135 1.5 7.99935 1.5ZM7.99935 2.5C8.45935 2.5 8.83268 2.87333 8.83268 3.33333C8.83268 3.79333 8.45935 4.16667 7.99935 4.16667C7.53935 4.16667 7.16602 3.79333 7.16602 3.33333C7.16602 2.87333 7.53935 2.5 7.99935 2.5Z" fill="#050B20"/>
<path fill-rule="evenodd" clip-rule="evenodd" d="M7.99935 10.8333C6.98735 10.8333 6.16602 11.6546 6.16602 12.6666C6.16602 13.6786 6.98735 14.4999 7.99935 14.4999C9.01135 14.4999 9.83268 13.6786 9.83268 12.6666C9.83268 11.6546 9.01135 10.8333 7.99935 10.8333ZM7.99935 11.8333C8.45935 11.8333 8.83268 12.2066 8.83268 12.6666C8.83268 13.1266 8.45935 13.4999 7.99935 13.4999C7.53935 13.4999 7.16602 13.1266 7.16602 12.6666C7.16602 12.2066 7.53935 11.8333 7.99935 11.8333Z" fill="#050B20"/>
<path fill-rule="evenodd" clip-rule="evenodd" d="M13.3333 1.5C12.3213 1.5 11.5 2.32133 11.5 3.33333C11.5 4.34533 12.3213 5.16667 13.3333 5.16667C14.3453 5.16667 15.1667 4.34533 15.1667 3.33333C15.1667 2.32133 14.3453 1.5 13.3333 1.5ZM13.3333 2.5C13.7933 2.5 14.1667 2.87333 14.1667 3.33333C14.1667 3.79333 13.7933 4.16667 13.3333 4.16667C12.8733 4.16667 12.5 3.79333 12.5 3.33333C12.5 2.87333 12.8733 2.5 13.3333 2.5Z" fill="#050B20"/>
<path fill-rule="evenodd" clip-rule="evenodd" d="M13.3333 10.8333C12.3213 10.8333 11.5 11.6546 11.5 12.6666C11.5 13.6786 12.3213 14.4999 13.3333 14.4999C14.3453 14.4999 15.1667 13.6786 15.1667 12.6666C15.1667 11.6546 14.3453 10.8333 13.3333 10.8333ZM13.3333 11.8333C13.7933 11.8333 14.1667 12.2066 14.1667 12.6666C14.1667 13.1266 13.7933 13.4999 13.3333 13.4999C12.8733 13.4999 12.5 13.1266 12.5 12.6666C12.5 12.2066 12.8733 11.8333 13.3333 11.8333Z" fill="#050B20"/>
<path fill-rule="evenodd" clip-rule="evenodd" d="M2.16602 4.66675V11.3334C2.16602 11.6094 2.39002 11.8334 2.66602 11.8334C2.94202 11.8334 3.16602 11.6094 3.16602 11.3334V4.66675C3.16602 4.39075 2.94202 4.16675 2.66602 4.16675C2.39002 4.16675 2.16602 4.39075 2.16602 4.66675Z" fill="#050B20"/>
<path fill-rule="evenodd" clip-rule="evenodd" d="M7.5 4.66675V11.3334C7.5 11.6094 7.724 11.8334 8 11.8334C8.276 11.8334 8.5 11.6094 8.5 11.3334V4.66675C8.5 4.39075 8.276 4.16675 8 4.16675C7.724 4.16675 7.5 4.39075 7.5 4.66675Z" fill="#050B20"/>
<path fill-rule="evenodd" clip-rule="evenodd" d="M12.8327 4.66675V7.33341C12.8327 7.42541 12.758 7.50008 12.666 7.50008H2.66602C2.39002 7.50008 2.16602 7.72408 2.16602 8.00008C2.16602 8.27608 2.39002 8.50008 2.66602 8.50008H12.666C13.3107 8.50008 13.8327 7.97741 13.8327 7.33341C13.8327 6.36075 13.8327 4.66675 13.8327 4.66675C13.8327 4.39075 13.6087 4.16675 13.3327 4.16675C13.0567 4.16675 12.8327 4.39075 12.8327 4.66675Z" fill="#050B20"/>
</svg>
