<svg width="30" height="30" viewBox="0 0 30 30" fill="none" xmlns="http://www.w3.org/2000/svg">
<g clip-path="url(#clip0_172_11388)">
<path d="M17.8125 5.625C17.8125 5.10721 17.3928 4.6875 16.875 4.6875H7.5C6.98221 4.6875 6.5625 5.10721 6.5625 5.625V13.125C6.5625 13.6428 6.98221 14.0625 7.5 14.0625H16.875C17.3928 14.0625 17.8125 13.6428 17.8125 13.125V5.625ZM15.9375 12.1875H8.4375V6.5625H15.9375V12.1875Z" fill="#405FF2"/>
<path d="M28.5667 6.64764L24.8279 4.77264C24.3637 4.54008 23.8072 4.72916 23.5755 5.19193C23.3439 5.65518 23.5344 6.21826 23.9977 6.44988L25.4215 7.16115C25.3835 7.26311 25.3342 7.37092 25.3342 7.48629C25.3342 8.70691 26.25 9.73781 27.1875 10.126V21.5488C27.1875 22.0656 26.7668 22.4863 26.25 22.4863C25.7332 22.4863 25.3125 22.0656 25.3125 21.5488V14.0488C25.3125 11.7853 23.4375 9.89162 21.5625 9.45603V3.73629C21.5625 1.66857 19.925 0 17.8573 0H6.60727C4.53955 0 2.8125 1.66857 2.8125 3.73629V24.7192L1.4557 25.3976C1.13801 25.5565 0.9375 25.881 0.9375 26.2363V29.0488C0.9375 29.5665 1.40203 30 1.91977 30H22.5448C23.0625 30 23.4375 29.5665 23.4375 29.0488V26.2363C23.4375 25.881 23.237 25.5565 22.9193 25.3976L21.5625 24.7192V11.4091C22.5 11.7973 23.4375 12.8282 23.4375 14.0488V21.5488C23.4375 23.0997 24.6991 24.3613 26.25 24.3613C27.8009 24.3613 29.0625 23.0997 29.0625 21.5488V7.48629C29.0625 7.13103 28.8844 6.80648 28.5667 6.64764ZM21.5625 28.125H2.8125V26.8158L4.1693 26.1374C4.48699 25.9785 4.6875 25.654 4.6875 25.2987V3.73623C4.6875 2.70217 5.57314 1.875 6.60727 1.875H17.8573C18.8913 1.875 19.6875 2.70217 19.6875 3.73629V25.2988C19.6875 25.654 19.888 25.9786 20.2057 26.1374L21.5625 26.8158V28.125Z" fill="#405FF2"/>
</g>
<defs>
<clipPath id="clip0_172_11388">
<rect width="30" height="30" fill="white"/>
</clipPath>
</defs>
</svg>
