<svg width="30" height="30" viewBox="0 0 30 30" fill="none" xmlns="http://www.w3.org/2000/svg">
<g clip-path="url(#clip0_170_10773)">
<path d="M30 17.747C30 21.0379 28.9526 24.1617 26.9712 26.7812C26.5803 27.2983 25.8451 27.3985 25.3297 27.0087C24.8135 26.6183 24.7117 25.8833 25.1019 25.3672C26.773 23.1583 27.6562 20.5231 27.6562 17.747C27.6562 10.752 21.9912 5.09766 15 5.09766C8.004 5.09766 2.34375 10.7563 2.34375 17.747C2.34375 20.5231 3.22701 23.1583 4.89784 25.3672C5.28831 25.8833 5.18646 26.6183 4.67033 27.0087C4.15398 27.3992 3.41927 27.2974 3.02856 26.7812C1.04736 24.1617 0 21.0379 0 17.747C0 9.45602 6.71356 2.75391 15 2.75391C23.291 2.75391 30 9.4606 30 17.747ZM22.4252 10.6895C22.8827 11.147 22.8827 11.889 22.4252 12.3466L18.6053 16.1664C18.9198 16.7461 19.0988 17.4099 19.0988 18.1144C19.0988 20.3746 17.26 22.2132 15 22.2132C12.7398 22.2132 10.9012 20.3746 10.9012 18.1144C10.9012 15.8544 12.7398 14.0156 15 14.0156C15.7047 14.0156 16.3683 14.1946 16.948 14.509L20.7678 10.6892C21.2256 10.2317 21.9674 10.2317 22.4252 10.6895ZM16.7551 18.1146C16.7551 17.1469 15.9677 16.3596 15 16.3596C14.0323 16.3596 13.2449 17.1469 13.2449 18.1146C13.2449 19.0823 14.0323 19.8697 15 19.8697C15.9677 19.8697 16.7551 19.0823 16.7551 18.1146Z" fill="#405FF2"/>
</g>
<defs>
<clipPath id="clip0_170_10773">
<rect width="30" height="30" fill="white"/>
</clipPath>
</defs>
</svg>
