<svg width="30" height="30" viewBox="0 0 30 30" fill="none" xmlns="http://www.w3.org/2000/svg">
<path fill-rule="evenodd" clip-rule="evenodd" d="M5 2.8125C3.1025 2.8125 1.5625 4.3525 1.5625 6.25C1.5625 8.1475 3.1025 9.6875 5 9.6875C6.8975 9.6875 8.4375 8.1475 8.4375 6.25C8.4375 4.3525 6.8975 2.8125 5 2.8125ZM5 4.6875C5.8625 4.6875 6.5625 5.3875 6.5625 6.25C6.5625 7.1125 5.8625 7.8125 5 7.8125C4.1375 7.8125 3.4375 7.1125 3.4375 6.25C3.4375 5.3875 4.1375 4.6875 5 4.6875Z" fill="#405FF2"/>
<path fill-rule="evenodd" clip-rule="evenodd" d="M5 20.3125C3.1025 20.3125 1.5625 21.8525 1.5625 23.75C1.5625 25.6475 3.1025 27.1875 5 27.1875C6.8975 27.1875 8.4375 25.6475 8.4375 23.75C8.4375 21.8525 6.8975 20.3125 5 20.3125ZM5 22.1875C5.8625 22.1875 6.5625 22.8875 6.5625 23.75C6.5625 24.6125 5.8625 25.3125 5 25.3125C4.1375 25.3125 3.4375 24.6125 3.4375 23.75C3.4375 22.8875 4.1375 22.1875 5 22.1875Z" fill="#405FF2"/>
<path fill-rule="evenodd" clip-rule="evenodd" d="M15 2.8125C13.1025 2.8125 11.5625 4.3525 11.5625 6.25C11.5625 8.1475 13.1025 9.6875 15 9.6875C16.8975 9.6875 18.4375 8.1475 18.4375 6.25C18.4375 4.3525 16.8975 2.8125 15 2.8125ZM15 4.6875C15.8625 4.6875 16.5625 5.3875 16.5625 6.25C16.5625 7.1125 15.8625 7.8125 15 7.8125C14.1375 7.8125 13.4375 7.1125 13.4375 6.25C13.4375 5.3875 14.1375 4.6875 15 4.6875Z" fill="#405FF2"/>
<path fill-rule="evenodd" clip-rule="evenodd" d="M15 20.3125C13.1025 20.3125 11.5625 21.8525 11.5625 23.75C11.5625 25.6475 13.1025 27.1875 15 27.1875C16.8975 27.1875 18.4375 25.6475 18.4375 23.75C18.4375 21.8525 16.8975 20.3125 15 20.3125ZM15 22.1875C15.8625 22.1875 16.5625 22.8875 16.5625 23.75C16.5625 24.6125 15.8625 25.3125 15 25.3125C14.1375 25.3125 13.4375 24.6125 13.4375 23.75C13.4375 22.8875 14.1375 22.1875 15 22.1875Z" fill="#405FF2"/>
<path fill-rule="evenodd" clip-rule="evenodd" d="M25 2.8125C23.1025 2.8125 21.5625 4.3525 21.5625 6.25C21.5625 8.1475 23.1025 9.6875 25 9.6875C26.8975 9.6875 28.4375 8.1475 28.4375 6.25C28.4375 4.3525 26.8975 2.8125 25 2.8125ZM25 4.6875C25.8625 4.6875 26.5625 5.3875 26.5625 6.25C26.5625 7.1125 25.8625 7.8125 25 7.8125C24.1375 7.8125 23.4375 7.1125 23.4375 6.25C23.4375 5.3875 24.1375 4.6875 25 4.6875Z" fill="#405FF2"/>
<path fill-rule="evenodd" clip-rule="evenodd" d="M25 20.3125C23.1025 20.3125 21.5625 21.8525 21.5625 23.75C21.5625 25.6475 23.1025 27.1875 25 27.1875C26.8975 27.1875 28.4375 25.6475 28.4375 23.75C28.4375 21.8525 26.8975 20.3125 25 20.3125ZM25 22.1875C25.8625 22.1875 26.5625 22.8875 26.5625 23.75C26.5625 24.6125 25.8625 25.3125 25 25.3125C24.1375 25.3125 23.4375 24.6125 23.4375 23.75C23.4375 22.8875 24.1375 22.1875 25 22.1875Z" fill="#405FF2"/>
<path fill-rule="evenodd" clip-rule="evenodd" d="M4.0625 8.75V21.25C4.0625 21.7675 4.4825 22.1875 5 22.1875C5.5175 22.1875 5.9375 21.7675 5.9375 21.25V8.75C5.9375 8.2325 5.5175 7.8125 5 7.8125C4.4825 7.8125 4.0625 8.2325 4.0625 8.75Z" fill="#405FF2"/>
<path fill-rule="evenodd" clip-rule="evenodd" d="M14.0625 8.75V21.25C14.0625 21.7675 14.4825 22.1875 15 22.1875C15.5175 22.1875 15.9375 21.7675 15.9375 21.25V8.75C15.9375 8.2325 15.5175 7.8125 15 7.8125C14.4825 7.8125 14.0625 8.2325 14.0625 8.75Z" fill="#405FF2"/>
<path fill-rule="evenodd" clip-rule="evenodd" d="M24.0625 8.75V13.75C24.0625 13.9225 23.9225 14.0625 23.75 14.0625H5C4.4825 14.0625 4.0625 14.4825 4.0625 15C4.0625 15.5175 4.4825 15.9375 5 15.9375H23.75C24.9587 15.9375 25.9375 14.9575 25.9375 13.75C25.9375 11.9262 25.9375 8.75 25.9375 8.75C25.9375 8.2325 25.5175 7.8125 25 7.8125C24.4825 7.8125 24.0625 8.2325 24.0625 8.75Z" fill="#405FF2"/>
</svg>
