<svg width="18" height="18" viewBox="0 0 18 18" fill="none" xmlns="http://www.w3.org/2000/svg">
<path d="M16.2778 7.60745C15.9951 7.60745 15.7521 7.39523 15.7198 7.10798C15.4348 4.57598 13.4676 2.61098 10.9356 2.32973C10.6273 2.29523 10.4046 2.01773 10.4391 1.70873C10.4728 1.40048 10.7496 1.17023 11.0601 1.21223C14.1178 1.55123 16.4938 3.92423 16.8373 6.98198C16.8726 7.29098 16.6498 7.5692 16.3416 7.6037C16.3206 7.60595 16.2988 7.60745 16.2778 7.60745Z" fill="#405FF2"/>
<path d="M13.6222 7.61567C13.3582 7.61567 13.1235 7.42967 13.071 7.16117C12.855 6.05117 11.9992 5.19542 10.8907 4.98017C10.5855 4.92092 10.3867 4.62617 10.446 4.32092C10.5052 4.01567 10.8075 3.81692 11.1052 3.87617C12.666 4.17917 13.8712 5.38367 14.175 6.94517C14.2342 7.25117 14.0355 7.54592 13.731 7.60517C13.6942 7.61192 13.6582 7.61567 13.6222 7.61567Z" fill="#405FF2"/>
<path fill-rule="evenodd" clip-rule="evenodd" d="M5.61174 12.3302C9.14652 15.8657 11.5 16.7927 12.9865 16.7927C13.72 16.7927 14.2435 16.567 14.5923 16.3165C14.608 16.3075 16.222 15.3205 16.5048 13.8265C16.6383 13.1252 16.4433 12.4315 15.9423 11.8195C13.8783 9.31374 12.8268 9.54774 11.6658 10.1125C10.9525 10.462 10.3893 10.7335 8.79852 9.14424C7.20867 7.55372 7.48293 6.9904 7.83012 6.27727C8.39562 5.11627 8.62827 4.06451 6.12174 1.99901C5.51124 1.50026 4.82199 1.30526 4.12149 1.43651C2.64924 1.71176 1.65774 3.29951 1.65774 3.29951C0.868736 4.40726 0.333239 7.05252 5.61174 12.3302ZM4.35099 2.53751C4.41699 2.52701 4.48224 2.52101 4.54674 2.52101C4.84074 2.52101 5.12424 2.63576 5.40699 2.86826C7.42822 4.53325 7.17249 5.05826 6.81849 5.785C6.28674 6.87775 6.00849 7.94424 8.00277 9.93999C9.99927 11.9357 11.0665 11.6575 12.1578 11.1242L12.1596 11.1233C12.8854 10.7705 13.4102 10.5155 15.073 12.5342C15.3573 12.8807 15.466 13.2272 15.4045 13.5925C15.2628 14.4325 14.2863 15.1847 13.9908 15.3677C12.9325 16.1222 10.3848 15.5125 6.40674 11.5352C2.43024 7.55799 1.81974 5.01026 2.60124 3.91151C2.75724 3.65726 3.51249 2.67926 4.35099 2.53751Z" fill="#405FF2"/>
</svg>
