<svg width="12" height="12" viewBox="0 0 12 12" fill="none" xmlns="http://www.w3.org/2000/svg">
<g clip-path="url(#clip0_157_9956)">
<path d="M9.39068 12C9.15163 12 8.91677 11.9312 8.71134 11.8009L6.118 10.1543C6.04707 10.1091 5.95303 10.1096 5.88262 10.1543L3.28875 11.8009C2.80486 12.1082 2.13761 12.0368 1.72728 11.6454C1.47562 11.4047 1.33691 11.079 1.33691 10.728V1.2704C1.33744 0.570053 1.90749 0 2.60784 0H9.39278C10.0931 0 10.6632 0.570053 10.6632 1.2704V10.728C10.6632 11.4294 10.0926 12 9.39068 12ZM6.00031 9.06935C6.24199 9.06935 6.47789 9.13765 6.68175 9.26743L9.27509 10.9135C9.3124 10.9371 9.35075 10.9487 9.3912 10.9487C9.48052 10.9487 9.61292 10.8788 9.61292 10.728V1.2704C9.61239 1.14956 9.51362 1.05079 9.39278 1.05079H2.60784C2.48648 1.05079 2.38823 1.14956 2.38823 1.2704V10.728C2.38823 10.7911 2.41029 10.8436 2.4539 10.8851C2.52588 10.9539 2.63569 10.9708 2.72606 10.9135L5.3194 9.2669C5.52273 9.13765 5.75863 9.06935 6.00031 9.06935Z" fill="black"/>
</g>
<defs>
<clipPath id="clip0_157_9956">
<rect width="12" height="12" fill="white"/>
</clipPath>
</defs>
</svg>
