<svg width="18" height="18" viewBox="0 0 18 18" fill="none" xmlns="http://www.w3.org/2000/svg">
<path fill-rule="evenodd" clip-rule="evenodd" d="M3 1.6875C1.8615 1.6875 0.9375 2.6115 0.9375 3.75C0.9375 4.8885 1.8615 5.8125 3 5.8125C4.1385 5.8125 5.0625 4.8885 5.0625 3.75C5.0625 2.6115 4.1385 1.6875 3 1.6875ZM3 2.8125C3.5175 2.8125 3.9375 3.2325 3.9375 3.75C3.9375 4.2675 3.5175 4.6875 3 4.6875C2.4825 4.6875 2.0625 4.2675 2.0625 3.75C2.0625 3.2325 2.4825 2.8125 3 2.8125Z" fill="#405FF2"/>
<path fill-rule="evenodd" clip-rule="evenodd" d="M3 12.1875C1.8615 12.1875 0.9375 13.1115 0.9375 14.25C0.9375 15.3885 1.8615 16.3125 3 16.3125C4.1385 16.3125 5.0625 15.3885 5.0625 14.25C5.0625 13.1115 4.1385 12.1875 3 12.1875ZM3 13.3125C3.5175 13.3125 3.9375 13.7325 3.9375 14.25C3.9375 14.7675 3.5175 15.1875 3 15.1875C2.4825 15.1875 2.0625 14.7675 2.0625 14.25C2.0625 13.7325 2.4825 13.3125 3 13.3125Z" fill="#405FF2"/>
<path fill-rule="evenodd" clip-rule="evenodd" d="M9 1.6875C7.8615 1.6875 6.9375 2.6115 6.9375 3.75C6.9375 4.8885 7.8615 5.8125 9 5.8125C10.1385 5.8125 11.0625 4.8885 11.0625 3.75C11.0625 2.6115 10.1385 1.6875 9 1.6875ZM9 2.8125C9.5175 2.8125 9.9375 3.2325 9.9375 3.75C9.9375 4.2675 9.5175 4.6875 9 4.6875C8.4825 4.6875 8.0625 4.2675 8.0625 3.75C8.0625 3.2325 8.4825 2.8125 9 2.8125Z" fill="#405FF2"/>
<path fill-rule="evenodd" clip-rule="evenodd" d="M9 12.1875C7.8615 12.1875 6.9375 13.1115 6.9375 14.25C6.9375 15.3885 7.8615 16.3125 9 16.3125C10.1385 16.3125 11.0625 15.3885 11.0625 14.25C11.0625 13.1115 10.1385 12.1875 9 12.1875ZM9 13.3125C9.5175 13.3125 9.9375 13.7325 9.9375 14.25C9.9375 14.7675 9.5175 15.1875 9 15.1875C8.4825 15.1875 8.0625 14.7675 8.0625 14.25C8.0625 13.7325 8.4825 13.3125 9 13.3125Z" fill="#405FF2"/>
<path fill-rule="evenodd" clip-rule="evenodd" d="M15 1.6875C13.8615 1.6875 12.9375 2.6115 12.9375 3.75C12.9375 4.8885 13.8615 5.8125 15 5.8125C16.1385 5.8125 17.0625 4.8885 17.0625 3.75C17.0625 2.6115 16.1385 1.6875 15 1.6875ZM15 2.8125C15.5175 2.8125 15.9375 3.2325 15.9375 3.75C15.9375 4.2675 15.5175 4.6875 15 4.6875C14.4825 4.6875 14.0625 4.2675 14.0625 3.75C14.0625 3.2325 14.4825 2.8125 15 2.8125Z" fill="#405FF2"/>
<path fill-rule="evenodd" clip-rule="evenodd" d="M15 12.1875C13.8615 12.1875 12.9375 13.1115 12.9375 14.25C12.9375 15.3885 13.8615 16.3125 15 16.3125C16.1385 16.3125 17.0625 15.3885 17.0625 14.25C17.0625 13.1115 16.1385 12.1875 15 12.1875ZM15 13.3125C15.5175 13.3125 15.9375 13.7325 15.9375 14.25C15.9375 14.7675 15.5175 15.1875 15 15.1875C14.4825 15.1875 14.0625 14.7675 14.0625 14.25C14.0625 13.7325 14.4825 13.3125 15 13.3125Z" fill="#405FF2"/>
<path fill-rule="evenodd" clip-rule="evenodd" d="M2.4375 5.25V12.75C2.4375 13.0605 2.6895 13.3125 3 13.3125C3.3105 13.3125 3.5625 13.0605 3.5625 12.75V5.25C3.5625 4.9395 3.3105 4.6875 3 4.6875C2.6895 4.6875 2.4375 4.9395 2.4375 5.25Z" fill="#405FF2"/>
<path fill-rule="evenodd" clip-rule="evenodd" d="M8.4375 5.25V12.75C8.4375 13.0605 8.6895 13.3125 9 13.3125C9.3105 13.3125 9.5625 13.0605 9.5625 12.75V5.25C9.5625 4.9395 9.3105 4.6875 9 4.6875C8.6895 4.6875 8.4375 4.9395 8.4375 5.25Z" fill="#405FF2"/>
<path fill-rule="evenodd" clip-rule="evenodd" d="M14.4375 5.25V8.25C14.4375 8.3535 14.3535 8.4375 14.25 8.4375H3C2.6895 8.4375 2.4375 8.6895 2.4375 9C2.4375 9.3105 2.6895 9.5625 3 9.5625H14.25C14.9753 9.5625 15.5625 8.9745 15.5625 8.25C15.5625 7.15575 15.5625 5.25 15.5625 5.25C15.5625 4.9395 15.3105 4.6875 15 4.6875C14.6895 4.6875 14.4375 4.9395 14.4375 5.25Z" fill="#405FF2"/>
</svg>
