<svg width="18" height="18" viewBox="0 0 18 18" fill="none" xmlns="http://www.w3.org/2000/svg">
<g clip-path="url(#clip0_170_12591)">
<mask id="mask0_170_12591" style="mask-type:luminance" maskUnits="userSpaceOnUse" x="0" y="0" width="18" height="18">
<path d="M0 1.90735e-06H18V18H0V1.90735e-06Z" fill="white"/>
</mask>
<g mask="url(#mask0_170_12591)">
<path d="M3.68891 11.2165L6.36075 10.5372C6.67245 10.458 6.89062 10.1773 6.89062 9.85574C6.89062 9.39716 6.45869 9.06128 6.01425 9.17427L3.34241 9.85356C3.03071 9.9328 2.8125 10.2134 2.8125 10.535C2.8125 10.9936 3.24443 11.3295 3.68891 11.2165Z" fill="#050B20"/>
<path d="M2.8125 4.91003C2.8125 5.3686 3.24443 5.70449 3.68891 5.59149L6.36075 4.9122C6.67241 4.83296 6.89062 4.55235 6.89062 4.23074C6.89062 3.77216 6.45869 3.43628 6.01421 3.54927L3.34237 4.22856C3.03071 4.3078 2.8125 4.58842 2.8125 4.91003Z" fill="#050B20"/>
<path d="M3.68891 8.40399L6.36075 7.7247C6.67245 7.64546 6.89062 7.36485 6.89062 7.04324C6.89062 6.58466 6.45869 6.24878 6.01425 6.36177L3.34241 7.04106C3.03071 7.1203 2.8125 7.40092 2.8125 7.72253C2.8125 8.1811 3.24443 8.51699 3.68891 8.40399Z" fill="#050B20"/>
<path d="M17.2969 15.8899C17.2969 16.8071 16.433 17.4788 15.5441 17.2528L9 15.589L2.45587 17.2528C1.56698 17.4788 0.703125 16.8071 0.703125 15.8899V4.3389C0.703125 3.3741 1.3577 2.53229 2.29275 2.29453L8.11849 0.813429C8.69695 0.666371 9.30305 0.666371 9.88151 0.813429L15.7072 2.29453C16.6423 2.53229 17.2969 3.3741 17.2969 4.3389V12.375" stroke="#050B20" stroke-width="1.5" stroke-miterlimit="10" stroke-linecap="round" stroke-linejoin="round"/>
<path d="M9 3.48053V15.5891" stroke="#050B20" stroke-width="1.5" stroke-miterlimit="10" stroke-linecap="round" stroke-linejoin="round"/>
<path d="M4.74859 12.362L3.34237 12.7364C3.03068 12.8156 2.8125 13.0962 2.8125 13.4178C2.8125 13.8764 3.24443 14.2123 3.68887 14.0993L5.09509 13.7249C5.40679 13.6457 5.625 13.365 5.625 13.0434C5.625 12.5848 5.19307 12.2489 4.74859 12.362Z" fill="#050B20"/>
</g>
</g>
<defs>
<clipPath id="clip0_170_12591">
<rect width="18" height="18" fill="white"/>
</clipPath>
</defs>
</svg>
