<svg width="19" height="18" viewBox="0 0 19 18" fill="none" xmlns="http://www.w3.org/2000/svg">
<path d="M8.3047 17.4287C8.30429 17.4287 8.30378 17.4287 8.30326 17.4287C7.7752 17.4283 7.27865 17.2223 6.90539 16.8484L1.64802 11.5835C0.879045 10.8131 0.879045 9.55955 1.64802 8.78923L8.73503 1.68863C9.46538 0.956841 10.4372 0.553711 11.4712 0.553711H15.9676C17.0579 0.553711 17.9451 1.44072 17.9451 2.53125V7.01377C17.9451 8.04714 17.5424 9.01851 16.8113 9.74875L9.70227 16.8504C9.3288 17.2233 8.83246 17.4287 8.3047 17.4287ZM11.4712 1.87207C10.7898 1.87207 10.1495 2.1377 9.66818 2.61993L2.58107 9.72053C2.32471 9.97741 2.32471 10.3952 2.58107 10.652L7.83844 15.9169C7.96276 16.0414 8.12817 16.1102 8.30429 16.1104H8.30481C8.48073 16.1104 8.64614 16.0419 8.77056 15.9176L15.8796 8.81612C16.3614 8.33492 16.6267 7.69469 16.6267 7.01377V2.53125C16.6267 2.16777 16.331 1.87207 15.9676 1.87207H11.4712ZM13.1659 7.24438C12.0755 7.24438 11.1884 6.35738 11.1884 5.26685C11.1884 4.17632 12.0755 3.28931 13.1659 3.28931C14.2564 3.28931 15.1435 4.17632 15.1435 5.26685C15.1435 6.35738 14.2564 7.24438 13.1659 7.24438ZM13.1659 4.60767C12.8025 4.60767 12.5068 4.90337 12.5068 5.26685C12.5068 5.63032 12.8025 5.92603 13.1659 5.92603C13.5295 5.92603 13.8251 5.63032 13.8251 5.26685C13.8251 4.90337 13.5295 4.60767 13.1659 4.60767Z" fill="white"/>
</svg>
