<svg width="34" height="34" viewBox="0 0 34 34" fill="none" xmlns="http://www.w3.org/2000/svg">
<path fill-rule="evenodd" clip-rule="evenodd" d="M17.1709 21.25C16.5841 21.25 16.1084 20.7743 16.1084 20.1875V3.12939C16.1084 2.5426 16.5841 2.06689 17.1709 2.06689C17.7577 2.06689 18.2334 2.5426 18.2334 3.12939V20.1875C18.2334 20.7743 17.7577 21.25 17.1709 21.25Z" fill="#050B20"/>
<path fill-rule="evenodd" clip-rule="evenodd" d="M12.2903 8.02841C11.8745 7.61433 11.8731 6.9416 12.2872 6.52581L16.4182 2.37781C16.6176 2.1776 16.8884 2.06506 17.1711 2.06506C17.4535 2.06506 17.7245 2.1776 17.9239 2.37781L22.0549 6.52581C22.469 6.9416 22.4675 7.61433 22.0518 8.02841C21.636 8.44249 20.9633 8.44111 20.5492 8.02532L17.1711 4.63327L13.7929 8.02532C13.3788 8.44111 12.7061 8.44249 12.2903 8.02841Z" fill="#050B20"/>
<path fill-rule="evenodd" clip-rule="evenodd" d="M6.30446 13.7582C7.11982 12.6579 8.45278 12.1078 10.9069 11.8816C11.4912 11.8277 11.9212 11.3104 11.8673 10.726C11.8135 10.1417 11.2961 9.71168 10.7118 9.76554C8.09422 10.0068 5.97051 10.6397 4.59712 12.4931C3.2804 14.27 2.8335 16.9473 2.8335 20.7402C2.8335 25.7691 3.62193 28.8611 6.20508 30.4478C7.43625 31.2042 8.96101 31.5384 10.7065 31.7007C12.4451 31.8625 14.5337 31.8625 16.9554 31.8625H17.0449C19.4666 31.8625 21.5553 31.8625 23.2938 31.7007C25.0393 31.5384 26.5641 31.2042 27.7953 30.4478C30.3785 28.8611 31.1668 25.7691 31.1668 20.7402C31.1668 16.9473 30.7199 14.27 29.4032 12.4931C28.0298 10.6397 25.9062 10.0068 23.2885 9.76554C22.7042 9.71168 22.1869 10.1417 22.133 10.726C22.0791 11.3104 22.5092 11.8277 23.0935 11.8816C25.5475 12.1078 26.8806 12.6579 27.6959 13.7582C28.568 14.935 29.0418 16.9824 29.0418 20.7402C29.0418 25.7711 28.194 27.709 26.6829 28.6372C25.8671 29.1384 24.7302 29.4329 23.0969 29.5849C21.4676 29.7365 19.4754 29.7375 17.0002 29.7375C14.525 29.7375 12.5328 29.7365 10.9033 29.5849C9.27005 29.4329 8.13325 29.1384 7.31733 28.6372C5.80631 27.709 4.9585 25.7711 4.9585 20.7402C4.9585 16.9824 5.43243 14.935 6.30446 13.7582Z" fill="#050B20"/>
</svg>
