<svg width="18" height="18" viewBox="0 0 18 18" fill="none" xmlns="http://www.w3.org/2000/svg">
<g clip-path="url(#clip0_166_9895)">
<path d="M11.3305 14.1202C11.0689 14.1202 10.8419 13.9257 10.808 13.6594C10.7713 13.3705 10.9756 13.1066 11.2644 13.0698C12.9308 12.8574 14.423 12.4059 15.4662 11.7981C16.4202 11.2423 16.9455 10.5889 16.9455 9.9583C16.9455 9.26328 16.3308 8.6946 15.815 8.33974C15.5751 8.17467 15.5144 7.84645 15.6794 7.6064C15.8445 7.36649 16.1729 7.30579 16.4128 7.47086C17.4512 8.18524 18.0002 9.04534 18.0002 9.95843C18.0002 10.9947 17.3076 11.946 15.9972 12.7094C14.8177 13.3966 13.2273 13.883 11.3978 14.1161C11.3751 14.1188 11.3526 14.1202 11.3305 14.1202Z" fill="#050B20"/>
<path d="M8.87144 13.365L7.46519 11.9587C7.2592 11.7527 6.92536 11.7527 6.71936 11.9587C6.51351 12.1646 6.51351 12.4986 6.71936 12.7044L7.13025 13.1153C5.55481 12.9526 4.12357 12.5858 3.01533 12.0528C1.76934 11.4536 1.05469 10.6902 1.05469 9.95853C1.05469 9.33794 1.56637 8.69291 2.4954 8.14222C2.74603 7.99377 2.8287 7.67022 2.68025 7.41973C2.53166 7.16911 2.20811 7.08644 1.95762 7.23489C0.339614 8.19399 0 9.24538 0 9.95853C0 11.1286 0.908567 12.2099 2.5583 13.0034C3.83875 13.619 5.49508 14.0314 7.29958 14.191L6.71936 14.7712C6.51351 14.9771 6.51351 15.3111 6.71936 15.5171C6.82236 15.6199 6.95735 15.6714 7.09235 15.6714C7.2272 15.6714 7.3622 15.6199 7.46519 15.5171L8.87144 14.1108C9.0773 13.9048 9.0773 13.5708 8.87144 13.365Z" fill="#050B20"/>
<path d="M5.52293 8.90232V8.77543C5.52293 8.32788 5.24896 8.24108 4.8816 8.24108C4.65446 8.24108 4.58099 8.04072 4.58099 7.84036C4.58099 7.63986 4.65446 7.4395 4.8816 7.4395C5.13539 7.4395 5.40263 7.40612 5.40263 6.86505C5.40263 6.47764 5.18222 6.38412 4.90825 6.38412C4.58099 6.38412 4.414 6.46432 4.414 6.72484C4.414 6.95184 4.31375 7.10551 3.92634 7.10551C3.44542 7.10551 3.38541 7.00526 3.38541 6.6846C3.38541 6.16371 3.75935 5.48901 4.90825 5.48901C5.75666 5.48901 6.39785 5.79622 6.39785 6.69806C6.39785 7.18557 6.21754 7.63986 5.88355 7.79353C6.27769 7.94047 6.56484 8.23435 6.56484 8.77543V8.90232C6.56484 9.99779 5.81008 10.412 4.87487 10.412C3.72598 10.412 3.28516 9.71064 3.28516 9.14951C3.28516 8.8489 3.41205 8.7687 3.7794 8.7687C4.20691 8.7687 4.31375 8.86222 4.31375 9.11614C4.31375 9.43008 4.60777 9.50355 4.90825 9.50355C5.36253 9.50355 5.52293 9.33656 5.52293 8.90232Z" fill="#050B20"/>
<path d="M10.6197 8.77543V8.83558C10.6197 9.98447 9.90487 10.412 8.98312 10.412C8.06137 10.412 7.33984 9.98447 7.33984 8.83558V7.06541C7.33984 5.91652 8.08128 5.48901 9.04327 5.48901C10.1721 5.48901 10.6197 6.19035 10.6197 6.74475C10.6197 7.06541 10.466 7.16552 10.132 7.16552C9.84486 7.16552 9.59094 7.09205 9.59094 6.78485C9.59094 6.53106 9.32383 6.39744 9.0099 6.39744C8.61577 6.39744 8.38189 6.60454 8.38189 7.06541V7.6665C8.59572 7.43277 8.89633 7.37262 9.21699 7.37262C9.97834 7.37262 10.6197 7.7066 10.6197 8.77543ZM8.38189 8.90905C8.38189 9.36993 8.60904 9.57029 8.98312 9.57029C9.3572 9.57029 9.57762 9.36993 9.57762 8.90905V8.8489C9.57762 8.36125 9.3572 8.1742 8.97639 8.1742C8.61577 8.1742 8.38189 8.34793 8.38189 8.78875V8.90905Z" fill="#050B20"/>
<path d="M11.4277 8.83558V7.06541C11.4277 5.91652 12.1424 5.48901 13.0643 5.48901C13.986 5.48901 14.7074 5.91652 14.7074 7.06541V8.83558C14.7074 9.98447 13.986 10.412 13.0643 10.412C12.1424 10.412 11.4277 9.98447 11.4277 8.83558ZM13.6654 7.06541C13.6654 6.60454 13.4384 6.39744 13.0643 6.39744C12.6902 6.39744 12.4698 6.60454 12.4698 7.06541V8.83558C12.4698 9.29646 12.6902 9.50355 13.0643 9.50355C13.4384 9.50355 13.6654 9.29646 13.6654 8.83558V7.06541Z" fill="#050B20"/>
<path d="M15.9736 5.48437C15.1012 5.48437 14.3916 4.77465 14.3916 3.90234C14.3916 3.03003 15.1012 2.32031 15.9736 2.32031C16.8459 2.32031 17.5557 3.03003 17.5557 3.90234C17.5557 4.77465 16.8459 5.48437 15.9736 5.48437ZM15.9736 3.375C15.6828 3.375 15.4463 3.61162 15.4463 3.90234C15.4463 4.1932 15.6828 4.42968 15.9736 4.42968C16.2644 4.42968 16.501 4.1932 16.501 3.90234C16.501 3.61162 16.2644 3.375 15.9736 3.375Z" fill="#050B20"/>
</g>
<defs>
<clipPath id="clip0_166_9895">
<rect width="18" height="18" fill="white"/>
</clipPath>
</defs>
</svg>
