<svg width="30" height="30" viewBox="0 0 30 30" fill="none" xmlns="http://www.w3.org/2000/svg">
<g clip-path="url(#clip0_178_11391)">
<path d="M1.0125 29.4937C0.745585 29.4938 0.489462 29.3884 0.299849 29.2005C0.110235 29.0127 0.00247144 28.7575 0 28.4906L0 15.4969C0 14.1716 0.526455 12.9006 1.46355 11.9636C2.40065 11.0265 3.67162 10.5 4.99688 10.5H15C16.3253 10.5 17.5962 11.0265 18.5333 11.9636C19.4704 12.9006 19.9969 14.1716 19.9969 15.4969V21.4969C19.9969 22.8221 19.4704 24.0931 18.5333 25.0302C17.5962 25.9673 16.3253 26.4938 15 26.4938H5.33438L1.58438 29.3063C1.41743 29.4258 1.21782 29.4913 1.0125 29.4937ZM5.00625 12.5063C4.2106 12.5063 3.44754 12.8223 2.88493 13.3849C2.32232 13.9475 2.00625 14.7106 2.00625 15.5063V26.4938L4.40625 24.6938C4.57984 24.5652 4.79027 24.4962 5.00625 24.4969H15C15.7957 24.4969 16.5587 24.1808 17.1213 23.6182C17.6839 23.0556 18 22.2925 18 21.4969V15.4969C18 14.7012 17.6839 13.9382 17.1213 13.3756C16.5587 12.8129 15.7957 12.4969 15 12.4969L5.00625 12.5063Z" fill="#405FF2"/>
<path d="M28.9875 19.4906C28.7714 19.492 28.5608 19.4228 28.3875 19.2937L24.6375 16.4812H22.9875C22.8483 16.4947 22.7077 16.479 22.5749 16.4349C22.4421 16.3909 22.32 16.3196 22.2164 16.2256C22.1129 16.1315 22.0301 16.0169 21.9734 15.889C21.9168 15.761 21.8875 15.6227 21.8875 15.4828C21.8875 15.3429 21.9168 15.2045 21.9734 15.0766C22.0301 14.9487 22.1129 14.8341 22.2164 14.74C22.32 14.646 22.4421 14.5747 22.5749 14.5306C22.7077 14.4866 22.8483 14.4709 22.9875 14.4844H24.9938C25.2098 14.483 25.4205 14.5521 25.5938 14.6812L27.9938 16.4812V5.50311C27.9938 4.70746 27.6777 3.9444 27.1151 3.38179C26.5525 2.81918 25.7894 2.50311 24.9938 2.50311H15C14.2044 2.50311 13.4413 2.81918 12.8787 3.38179C12.3161 3.9444 12 4.70746 12 5.50311V7.49998C12.0135 7.63923 11.9977 7.77976 11.9537 7.91255C11.9097 8.04534 11.8384 8.16746 11.7443 8.27105C11.6503 8.37464 11.5357 8.45742 11.4077 8.51406C11.2798 8.57071 11.1415 8.59997 11.0016 8.59997C10.8617 8.59997 10.7233 8.57071 10.5954 8.51406C10.4675 8.45742 10.3528 8.37464 10.2588 8.27105C10.1648 8.16746 10.0934 8.04534 10.0494 7.91255C10.0054 7.77976 9.98962 7.63923 10.0031 7.49998V5.50311C10.0031 4.17786 10.5296 2.90688 11.4667 1.96979C12.4038 1.03269 13.6748 0.506234 15 0.506234H24.9938C25.6507 0.505002 26.3015 0.63334 26.9089 0.883905C27.5162 1.13447 28.0681 1.50234 28.5331 1.96647C28.9981 2.43059 29.367 2.98186 29.6187 3.58872C29.8704 4.19558 30 4.84612 30 5.50311V18.4969C29.9951 18.7621 29.8863 19.0149 29.6969 19.2007C29.5076 19.3866 29.2528 19.4907 28.9875 19.4906Z" fill="#405FF2"/>
<path d="M11.9906 17.5218H6.00001C5.86077 17.5353 5.72023 17.5196 5.58744 17.4755C5.45465 17.4315 5.33254 17.3602 5.22895 17.2662C5.12536 17.1721 5.04258 17.0575 4.98593 16.9296C4.92929 16.8016 4.90002 16.6633 4.90002 16.5234C4.90002 16.3835 4.92929 16.2451 4.98593 16.1172C5.04258 15.9893 5.12536 15.8746 5.22895 15.7806C5.33254 15.6866 5.45465 15.6153 5.58744 15.5712C5.72023 15.5272 5.86077 15.5114 6.00001 15.525H11.9906C12.1299 15.5114 12.2704 15.5272 12.4032 15.5712C12.536 15.6153 12.6581 15.6866 12.7617 15.7806C12.8653 15.8746 12.9481 15.9893 13.0047 16.1172C13.0614 16.2451 13.0906 16.3835 13.0906 16.5234C13.0906 16.6633 13.0614 16.8016 13.0047 16.9296C12.9481 17.0575 12.8653 17.1721 12.7617 17.2662C12.6581 17.3602 12.536 17.4315 12.4032 17.4755C12.2704 17.5196 12.1299 17.5353 11.9906 17.5218Z" fill="#405FF2"/>
<path d="M9.00001 21.5156H6.00001C5.86077 21.5291 5.72023 21.5133 5.58744 21.4693C5.45465 21.4253 5.33254 21.354 5.22895 21.2599C5.12536 21.1659 5.04258 21.0513 4.98593 20.9233C4.92929 20.7954 4.90002 20.6571 4.90002 20.5172C4.90002 20.3773 4.92929 20.2389 4.98593 20.111C5.04258 19.9831 5.12536 19.8684 5.22895 19.7744C5.33254 19.6804 5.45465 19.609 5.58744 19.565C5.72023 19.521 5.86077 19.5052 6.00001 19.5187H9.00001C9.13926 19.5052 9.27979 19.521 9.41258 19.565C9.54537 19.609 9.66749 19.6804 9.77108 19.7744C9.87467 19.8684 9.95744 19.9831 10.0141 20.111C10.0707 20.2389 10.1 20.3773 10.1 20.5172C10.1 20.6571 10.0707 20.7954 10.0141 20.9233C9.95744 21.0513 9.87467 21.1659 9.77108 21.2599C9.66749 21.354 9.54537 21.4253 9.41258 21.4693C9.27979 21.5133 9.13926 21.5291 9.00001 21.5156Z" fill="#405FF2"/>
</g>
<defs>
<clipPath id="clip0_178_11391">
<rect width="30" height="30" fill="white"/>
</clipPath>
</defs>
</svg>
