<svg width="34" height="34" viewBox="0 0 34 34" fill="none" xmlns="http://www.w3.org/2000/svg">
<path d="M31.1132 20.6447L29.9108 20.0433C30.4087 19.5638 30.7254 18.8979 30.7254 18.1538V4.28749C30.7254 2.8347 29.5449 1.6532 28.0939 1.6532H17.924C16.473 1.6532 15.2926 2.8347 15.2926 4.28749V13.6687H13.5157C12.5169 13.6687 11.6184 14.2251 11.1701 15.1236L9.30324 18.8763C9.14634 19.1667 8.88922 19.3714 8.58712 19.4497L3.41274 20.7438C2.23761 21.0502 1.41666 22.1014 1.41666 23.302V26.9421C1.41666 28.3892 2.60276 29.5668 4.0598 29.5668H5.3217C5.84728 31.1896 7.38543 32.3467 9.14989 32.3467C10.8963 32.3467 12.422 31.2006 12.9561 29.5668H20.1213C20.6451 31.1896 22.1754 32.3467 23.9296 32.3467C25.6827 32.3467 27.2113 31.1921 27.738 29.5668H29.9395C31.3972 29.5668 32.5833 28.3892 32.5833 26.9421V22.9886C32.5833 22.0118 32.006 21.092 31.1132 20.6447ZM16.859 4.28749C16.859 3.69851 17.3368 3.22074 17.924 3.22074H28.0936C28.6815 3.22074 29.1592 3.69851 29.1592 4.28749V18.1535C29.1592 18.5799 28.9032 18.9426 28.5398 19.1126C28.5359 19.1048 28.5292 19.0998 28.5256 19.092L26.5288 15.1211C26.089 14.2399 25.1685 13.6683 24.1839 13.6683H16.859V4.28749ZM11.5653 28.6761C11.3999 29.875 10.3608 30.7792 9.14989 30.7792C7.92624 30.7792 6.87968 29.875 6.71605 28.6839C6.69976 28.5596 6.68276 28.4374 6.68276 28.3131C6.68276 26.9651 7.78953 25.8679 9.14989 25.8679C10.4996 25.8679 11.5968 26.9651 11.5968 28.3131C11.5968 28.4314 11.5805 28.5479 11.5653 28.6761ZM26.3454 28.6761C26.18 29.875 25.1419 30.7792 23.93 30.7792C22.718 30.7792 21.6799 29.875 21.5163 28.6839C21.5 28.5596 21.4837 28.4374 21.4837 28.3131C21.4837 26.9651 22.5809 25.8679 23.93 25.8679C25.2797 25.8679 26.3769 26.9651 26.3769 28.3131C26.3769 28.4371 26.3596 28.5596 26.3454 28.6761ZM31.0165 26.9421C31.0165 27.5251 30.5338 27.9993 29.9391 27.9993H27.9108C27.7482 25.9356 26.0355 24.3 23.9296 24.3C21.8248 24.3 20.1117 25.9356 19.9484 27.9993H13.1311C12.9685 25.9356 11.2558 24.3 9.14989 24.3C7.03445 24.3 5.31284 25.9356 5.14851 27.9993H4.0598C3.46622 27.9993 2.98349 27.5251 2.98349 26.9421V23.302C2.98349 22.8069 3.31428 22.3882 3.79984 22.26L8.97493 20.9659C9.1977 20.9082 9.40524 20.8129 9.60393 20.7006V20.7863H21.6222V19.2188H10.8811L12.5711 15.8216C12.7546 15.4547 13.1084 15.2366 13.5157 15.2366H24.1843C24.5799 15.2366 24.951 15.4661 25.1295 15.8234L27.1178 19.7787C27.353 20.2756 27.739 20.6773 28.2983 20.9872L30.4116 22.0443C30.7739 22.226 31.0165 22.6046 31.0165 22.9889V26.9421Z" fill="#405FF2"/>
<path d="M18.9908 6.42493H27.0279V7.99247H18.9908V6.42493Z" fill="#405FF2"/>
<path d="M18.9908 10.3402H27.0279V11.9078H18.9908V10.3402Z" fill="#405FF2"/>
<path d="M6.36897 9.69592H6.98345C7.53879 9.69592 7.99106 10.1471 7.99106 10.7035C7.99106 11.2599 7.53879 11.7111 6.98345 11.7111H4.15295V13.2787H5.89262V15.1179H7.45839V13.1823C8.64272 12.9518 9.55754 11.9551 9.55754 10.7035C9.55754 9.28296 8.40295 8.12838 6.98345 8.12838H6.36897C5.81258 8.12838 5.36137 7.67717 5.36137 7.12077C5.36137 6.5665 5.81258 6.11529 6.36897 6.11529H9.19948V4.5474H7.45875V2.50952H5.89297V4.64373C4.70864 4.87465 3.79489 5.87092 3.79489 7.12077C3.79489 8.54133 4.94947 9.69592 6.36897 9.69592Z" fill="#405FF2"/>
</svg>
