<svg width="24" height="24" viewBox="0 0 24 24" fill="none" xmlns="http://www.w3.org/2000/svg">
<g clip-path="url(#clip0_178_11396)">
<path d="M18.7812 24C18.3031 24 17.8334 23.8623 17.4226 23.6018L12.2359 20.3086C12.094 20.2182 11.9059 20.2193 11.7651 20.3086L6.57738 23.6018C5.60961 24.2165 4.27511 24.0736 3.45444 23.2907C2.95111 22.8095 2.67371 22.158 2.67371 21.456V2.54081C2.67476 1.14011 3.81486 0 5.21556 0H18.7854C20.1861 0 21.3262 1.14011 21.3262 2.54081V21.456C21.3262 22.8588 20.1851 24 18.7812 24ZM12.0005 18.1387C12.4839 18.1387 12.9557 18.2753 13.3634 18.5349L18.5501 21.827C18.6247 21.8743 18.7014 21.8974 18.7823 21.8974C18.9609 21.8974 19.2257 21.7576 19.2257 21.456V2.54081C19.2247 2.29912 19.0271 2.10158 18.7854 2.10158H5.21556C4.97283 2.10158 4.77633 2.29912 4.77633 2.54081V21.456C4.77633 21.5821 4.82047 21.6872 4.90768 21.7702C5.05164 21.9079 5.27125 21.9415 5.45199 21.827L10.6387 18.5338C11.0453 18.2753 11.5171 18.1387 12.0005 18.1387Z" fill="#405FF2"/>
</g>
<defs>
<clipPath id="clip0_178_11396">
<rect width="24" height="24" fill="white"/>
</clipPath>
</defs>
</svg>
