<svg width="18" height="18" viewBox="0 0 18 18" fill="none" xmlns="http://www.w3.org/2000/svg">
<path d="M15.75 7.3125H16.3125C16.623 7.3125 16.875 7.0605 16.875 6.75C16.875 6.4395 16.623 6.1875 16.3125 6.1875H14.9434L14.0749 4.74019C13.5697 3.89813 12.6456 3.375 11.6634 3.375H6.33656C5.35444 3.375 4.43025 3.89813 3.92513 4.74019L3.05663 6.1875H1.6875C1.377 6.1875 1.125 6.4395 1.125 6.75C1.125 7.0605 1.377 7.3125 1.6875 7.3125H2.25L1.9125 7.7625C1.40456 8.43975 1.125 9.27844 1.125 10.125V12.9375C1.125 13.8679 1.88212 14.625 2.8125 14.625H3.9375C4.86788 14.625 5.625 13.8679 5.625 12.9375H12.375C12.375 13.8679 13.1321 14.625 14.0625 14.625H15.1875C16.1179 14.625 16.875 13.8679 16.875 12.9375V10.125C16.875 9.27844 16.5954 8.43919 16.0875 7.7625L15.75 7.3125ZM4.88981 5.31956C5.193 4.81444 5.74706 4.5 6.33656 4.5H11.664C12.2535 4.5 12.8076 4.81387 13.1108 5.31956L13.8668 6.57956L13.4758 6.84C13.0123 7.14881 12.4729 7.3125 11.9154 7.3125H6.084C5.52712 7.3125 4.98769 7.14938 4.52419 6.84056L4.13325 6.57956L4.88925 5.319L4.88981 5.31956ZM15.7506 12.9375C15.7506 13.2474 15.498 13.5 15.1881 13.5H14.0631C13.7531 13.5 13.5006 13.2474 13.5006 12.9375V12.375C13.5006 12.0645 13.2486 11.8125 12.9381 11.8125H5.0625C4.752 11.8125 4.5 12.0645 4.5 12.375V12.9375C4.5 13.2474 4.24744 13.5 3.9375 13.5H2.8125C2.50256 13.5 2.25 13.2474 2.25 12.9375V10.125C2.25 9.52031 2.44969 8.92069 2.8125 8.4375L3.5055 7.51331L3.90037 7.77656C4.5495 8.20913 5.30438 8.4375 6.084 8.4375H11.9154C12.6956 8.4375 13.4505 8.20856 14.0996 7.776L14.4939 7.51331L15.1869 8.4375C15.5498 8.92069 15.7494 9.52031 15.7494 10.125V12.9375H15.7506Z" fill="#050B20"/>
<path d="M14.0625 10.6875C14.3732 10.6875 14.625 10.4357 14.625 10.125C14.625 9.81434 14.3732 9.5625 14.0625 9.5625C13.7518 9.5625 13.5 9.81434 13.5 10.125C13.5 10.4357 13.7518 10.6875 14.0625 10.6875Z" fill="#050B20"/>
<path d="M3.9375 10.6875C4.24816 10.6875 4.5 10.4357 4.5 10.125C4.5 9.81434 4.24816 9.5625 3.9375 9.5625C3.62684 9.5625 3.375 9.81434 3.375 10.125C3.375 10.4357 3.62684 10.6875 3.9375 10.6875Z" fill="#050B20"/>
</svg>
