<svg width="18" height="18" viewBox="0 0 18 18" fill="none" xmlns="http://www.w3.org/2000/svg">
<g clip-path="url(#clip0_196_14315)">
<path d="M10.4873 1.69522L16.3045 7.51243" stroke="#050B20" stroke-miterlimit="10"/>
<path d="M3.69149 17.4726C5.43899 17.4726 6.85563 16.056 6.85563 14.3085C6.85563 12.561 5.43899 11.1443 3.69149 11.1443C1.94398 11.1443 0.527344 12.561 0.527344 14.3085C0.527344 16.056 1.94398 17.4726 3.69149 17.4726Z" stroke="#050B20" stroke-miterlimit="10"/>
<path d="M11.9788 7.51242L6.37598 13.1152" stroke="#050B20" stroke-miterlimit="10"/>
<path d="M4.88477 11.6237L10.4876 6.02084" stroke="#050B20" stroke-miterlimit="10"/>
<path d="M3.69143 15.3632C4.27394 15.3632 4.74615 14.891 4.74615 14.3085C4.74615 13.726 4.27394 13.2538 3.69143 13.2538C3.10893 13.2538 2.63672 13.726 2.63672 14.3085C2.63672 14.891 3.10893 15.3632 3.69143 15.3632Z" stroke="#050B20" stroke-miterlimit="10"/>
<path d="M17.1561 5.13178L12.8683 0.844052C12.4461 0.421815 11.7612 0.421815 11.339 0.844052L7.23438 4.94865L7.38977 5.10404C10.3577 5.13182 12.8683 7.64239 12.8961 10.6104L13.0515 10.7657L17.1561 6.66115C17.5783 6.23888 17.5783 5.55402 17.1561 5.13178Z" stroke="#050B20" stroke-miterlimit="10"/>
</g>
<defs>
<clipPath id="clip0_196_14315">
<rect width="18" height="18" fill="white"/>
</clipPath>
</defs>
</svg>
