<svg width="18" height="18" viewBox="0 0 18 18" fill="none" xmlns="http://www.w3.org/2000/svg">
<g clip-path="url(#clip0_196_14212)">
<path d="M10.6875 3.375C10.6875 3.06432 10.4357 2.8125 10.125 2.8125H4.5C4.18932 2.8125 3.9375 3.06432 3.9375 3.375V7.875C3.9375 8.18568 4.18932 8.4375 4.5 8.4375H10.125C10.4357 8.4375 10.6875 8.18568 10.6875 7.875V3.375ZM9.5625 7.3125H5.0625V3.9375H9.5625V7.3125Z" fill="#050B20"/>
<path d="M17.14 3.98858L14.8967 2.86358C14.6182 2.72405 14.2843 2.8375 14.1453 3.11516C14.0064 3.39311 14.1206 3.73096 14.3986 3.86993L15.2529 4.29669C15.2301 4.35786 15.2005 4.42255 15.2005 4.49177C15.2005 5.22415 15.75 5.84269 16.3125 6.0756V12.9293C16.3125 13.2394 16.0601 13.4918 15.75 13.4918C15.4399 13.4918 15.1875 13.2394 15.1875 12.9293V8.42927C15.1875 7.07115 14.0625 5.93497 12.9375 5.67362V2.24177C12.9375 1.00114 11.955 0 10.7144 0H3.96436C2.72373 0 1.6875 1.00114 1.6875 2.24177V14.8315L0.873422 15.2386C0.682805 15.3339 0.5625 15.5286 0.5625 15.7418V17.4293C0.5625 17.7399 0.841219 18 1.15186 18H13.5269C13.8375 18 14.0625 17.7399 14.0625 17.4293V15.7418C14.0625 15.5286 13.9422 15.3339 13.7516 15.2386L12.9375 14.8315V6.84545C13.5 7.07836 14.0625 7.6969 14.0625 8.42927V12.9293C14.0625 13.8598 14.8194 14.6168 15.75 14.6168C16.6806 14.6168 17.4375 13.8598 17.4375 12.9293V4.49177C17.4375 4.27862 17.3306 4.08389 17.14 3.98858ZM12.9375 16.875H1.6875V16.0895L2.50158 15.6824C2.6922 15.5871 2.8125 15.3924 2.8125 15.1792V2.24174C2.8125 1.6213 3.34389 1.125 3.96436 1.125H10.7144C11.3348 1.125 11.8125 1.6213 11.8125 2.24177V15.1793C11.8125 15.3924 11.9328 15.5872 12.1234 15.6825L12.9375 16.0895V16.875Z" fill="#050B20"/>
</g>
<defs>
<clipPath id="clip0_196_14212">
<rect width="18" height="18" fill="white"/>
</clipPath>
</defs>
</svg>
