<svg width="18" height="18" viewBox="0 0 18 18" fill="none" xmlns="http://www.w3.org/2000/svg">
<path d="M17.4375 6.75H15.75C15.4389 6.75 15.1875 7.002 15.1875 7.3125V7.875H14.625V7.3125C14.625 7.002 14.3736 6.75 14.0625 6.75H13.1704L11.6483 5.22787C11.5965 5.17556 11.5341 5.1345 11.4649 5.10581C11.3962 5.07769 11.3231 5.0625 11.25 5.0625H9.5625V3.9375H10.6875C10.9986 3.9375 11.25 3.6855 11.25 3.375C11.25 3.0645 10.9986 2.8125 10.6875 2.8125H5.625C5.31394 2.8125 5.0625 3.0645 5.0625 3.375C5.0625 3.6855 5.31394 3.9375 5.625 3.9375H6.75V5.0625H5.0625C5.0445 5.0625 5.02931 5.07094 5.01188 5.07262C4.97137 5.07656 4.93369 5.08388 4.89544 5.09625C4.86225 5.10694 4.83188 5.11875 4.8015 5.13506C4.77 5.15194 4.74131 5.17162 4.71263 5.19469C4.68281 5.21944 4.65694 5.24531 4.63275 5.27513C4.62094 5.28919 4.60519 5.29763 4.5945 5.31337L3.63656 6.75H2.25C1.93894 6.75 1.6875 7.002 1.6875 7.3125V9H1.125V7.3125C1.125 7.002 0.873562 6.75 0.5625 6.75C0.251438 6.75 0 7.002 0 7.3125V12.375C0 12.6855 0.251438 12.9375 0.5625 12.9375C0.873562 12.9375 1.125 12.6855 1.125 12.375V10.125H1.6875V12.375C1.6875 12.6855 1.93894 12.9375 2.25 12.9375H3.58987L4.55963 14.8764C4.58606 14.9293 4.62094 14.9754 4.66031 15.0159C4.66819 15.0244 4.67831 15.03 4.68675 15.0373C4.72669 15.0739 4.77112 15.1031 4.8195 15.1267C4.83581 15.1346 4.85212 15.1419 4.86956 15.1481C4.93087 15.1712 4.995 15.1869 5.06138 15.1875C5.06194 15.1875 5.06194 15.1875 5.0625 15.1875H11.8125C11.8946 15.1875 11.9717 15.1678 12.042 15.1363C12.0606 15.1279 12.0746 15.1127 12.0921 15.1026C12.1432 15.0722 12.1905 15.0384 12.2299 14.994C12.2361 14.9867 12.2456 14.9844 12.2518 14.9766L14.3331 12.375H15.1875V12.9375C15.1875 13.248 15.4389 13.5 15.75 13.5H17.4375C17.7486 13.5 18 13.248 18 12.9375V7.3125C18 7.002 17.7486 6.75 17.4375 6.75ZM16.875 12.375H16.3125V11.8125C16.3125 11.502 16.0611 11.25 15.75 11.25H14.0625C14.0518 11.25 14.0428 11.2556 14.0321 11.2562C13.9939 11.2584 13.9579 11.2686 13.9207 11.2787C13.8859 11.2882 13.8516 11.295 13.8195 11.3102C13.7903 11.3243 13.7655 11.3456 13.7385 11.3647C13.7059 11.3884 13.6738 11.4109 13.6468 11.4412C13.6395 11.4491 13.6299 11.4525 13.6232 11.4609L11.5419 14.0625H5.41012L4.44037 12.1236C4.428 12.0988 4.40663 12.0825 4.39088 12.06C4.36725 12.0262 4.34644 11.9925 4.31606 11.9644C4.28906 11.9396 4.25812 11.9233 4.22719 11.9047C4.19681 11.8856 4.16869 11.8654 4.13438 11.8524C4.09556 11.8378 4.0545 11.8339 4.01288 11.8277C3.98756 11.8243 3.9645 11.8125 3.9375 11.8125H2.8125V7.875H3.9375H3.93806C4.005 7.875 4.07025 7.85925 4.13269 7.83563C4.14506 7.83113 4.15744 7.82719 4.16981 7.82156C4.22662 7.79569 4.27894 7.76137 4.32506 7.71694C4.33406 7.7085 4.34081 7.69838 4.34925 7.68937C4.36837 7.66856 4.38919 7.64888 4.40494 7.62469L5.36344 6.1875H7.3125C7.62356 6.1875 7.875 5.9355 7.875 5.625V3.9375H8.4375V5.625C8.4375 5.9355 8.68894 6.1875 9 6.1875H11.0171L12.5392 7.70963C12.591 7.76194 12.6534 7.803 12.7226 7.83169C12.7913 7.85981 12.8644 7.875 12.9375 7.875H13.5V8.4375C13.5 8.748 13.7514 9 14.0625 9H15.75C16.0611 9 16.3125 8.748 16.3125 8.4375V7.875H16.875V12.375Z" fill="#050B20"/>
<path d="M11.0025 7.97119C10.7443 7.79682 10.3956 7.86488 10.2212 8.12194L7.89245 11.5639L6.53064 10.5131C6.2837 10.323 5.93158 10.3691 5.74202 10.6149C5.55245 10.8608 5.59802 11.214 5.84383 11.4036L7.67983 12.8199C7.77883 12.897 7.89977 12.9375 8.02352 12.9375C8.05333 12.9375 8.08258 12.9353 8.11295 12.9302C8.26595 12.9054 8.40264 12.8188 8.48927 12.69L11.1533 8.75251C11.3276 8.49488 11.2596 8.14557 11.0025 7.97119Z" fill="#050B20"/>
</svg>
