<svg width="18" height="18" viewBox="0 0 18 18" fill="none" xmlns="http://www.w3.org/2000/svg">
<g clip-path="url(#clip0_178_11531)">
<path d="M16.2 11.9981C16.0404 11.9981 15.8873 12.0615 15.7744 12.1744C15.6615 12.2873 15.5981 12.4404 15.5981 12.6C15.5966 13.7139 15.1535 14.7818 14.3658 15.5695C13.5781 16.3572 12.5102 16.8004 11.3962 16.8019H6.59812C5.48515 16.7989 4.41869 16.3551 3.63222 15.5675C2.84576 14.78 2.40335 13.713 2.40187 12.6V5.4C2.40336 4.28605 2.84653 3.21815 3.63421 2.43047C4.4219 1.64279 5.4898 1.19961 6.60374 1.19813H11.4019C12.5148 1.2011 13.5813 1.64493 14.3678 2.43245C15.1542 3.21997 15.5966 4.28702 15.5981 5.4C15.59 5.48355 15.5995 5.56787 15.6259 5.64754C15.6523 5.72722 15.6951 5.80048 15.7515 5.86264C15.8079 5.92479 15.8767 5.97446 15.9535 6.00845C16.0302 6.04243 16.1132 6.05999 16.1972 6.05999C16.2811 6.05999 16.3641 6.04243 16.4409 6.00845C16.5176 5.97446 16.5864 5.92479 16.6428 5.86264C16.6993 5.80048 16.7421 5.72722 16.7685 5.64754C16.7949 5.56787 16.8043 5.48355 16.7962 5.4C16.7948 3.96926 16.2261 2.59746 15.215 1.58525C14.2038 0.573039 12.8326 0.00297684 11.4019 0L6.59812 0C5.16641 0.00148904 3.79376 0.570894 2.78139 1.58327C1.76901 2.59564 1.19961 3.96829 1.19812 5.4V12.6C1.19961 14.0317 1.76901 15.4044 2.78139 16.4167C3.79376 17.4291 5.16641 17.9985 6.59812 18H11.3962C12.828 17.9985 14.2006 17.4291 15.213 16.4167C16.2254 15.4044 16.7948 14.0317 16.7962 12.6C16.7963 12.4413 16.7336 12.2891 16.622 12.1764C16.5103 12.0637 16.3586 11.9996 16.2 11.9981Z" fill="white"/>
<path d="M16.2 8.39814H9.24748L10.6256 7.02002C10.709 6.90324 10.748 6.76048 10.7355 6.61751C10.7229 6.47453 10.6597 6.34074 10.5572 6.24027C10.4547 6.13981 10.3197 6.07928 10.1765 6.06961C10.0333 6.05993 9.89132 6.10175 9.77623 6.18752L7.37436 8.58939C7.26204 8.70219 7.19897 8.8549 7.19897 9.01408C7.19897 9.17327 7.26204 9.32597 7.37436 9.43877L9.77623 11.8125C9.89112 11.9133 10.0401 11.9667 10.1928 11.9617C10.3456 11.9567 10.4907 11.8938 10.5988 11.7857C10.7069 11.6776 10.7698 11.5325 10.7748 11.3797C10.7798 11.227 10.7264 11.078 10.6256 10.9631L9.24748 9.58502H16.2C16.3489 9.57058 16.487 9.50122 16.5875 9.39048C16.6881 9.27973 16.7437 9.13552 16.7437 8.98596C16.7437 8.83639 16.6881 8.69218 16.5875 8.58144C16.487 8.47069 16.3489 8.40134 16.2 8.38689V8.39814Z" fill="white"/>
</g>
<defs>
<clipPath id="clip0_178_11531">
<rect width="18" height="18" fill="white"/>
</clipPath>
</defs>
</svg>
