<svg width="22" height="22" viewBox="0 0 22 22" fill="none" xmlns="http://www.w3.org/2000/svg">
<g clip-path="url(#clip0_178_11545)">
<path d="M20.8142 14.1515L19.0683 13.3593L18.5688 12.552C20.5165 11.3208 21.6972 9.18132 21.6972 6.87536V3.56022C21.6922 3.37353 21.5862 3.20197 21.4197 3.11619L16.9339 0.72949C16.7826 0.648756 16.6009 0.648756 16.4546 0.734536L12.1101 3.11619C11.9486 3.20701 11.8528 3.37353 11.8578 3.56022V6.94096C11.8528 7.89967 12.0495 8.85334 12.4431 9.73132H8.80505C8.02294 9.73132 7.28119 10.0997 6.80184 10.7203L4.81881 13.3189L1.48853 14.2272C0.61055 14.4644 0.00504587 15.2616 0 16.1699V17.4414C0.00504587 18.5566 0.913303 19.4598 2.02844 19.4699H2.27064C2.64404 20.8221 4.04679 21.6144 5.39908 21.2359C6.25688 20.9988 6.92798 20.3277 7.16514 19.4699H14.5826C14.956 20.8221 16.3587 21.6144 17.711 21.2359C18.5688 20.9988 19.2399 20.3277 19.4771 19.4699H19.9716C21.0867 19.4648 21.995 18.5616 22 17.4414V15.9832C21.995 15.191 21.5307 14.4795 20.8142 14.1515ZM12.867 3.85793L16.717 1.74371L20.6881 3.86298V6.87536C20.683 9.18132 19.3005 11.2552 17.1761 12.1483C17.1761 12.1483 17.1711 12.1483 17.1661 12.1483L16.6817 12.3552L16.2881 12.1786C14.2092 11.2653 12.867 9.2116 12.867 6.93591V3.85793ZM4.71789 20.3024C3.87018 20.3024 3.18899 19.6162 3.18899 18.7735C3.18899 17.9258 3.87523 17.2446 4.71789 17.2446C5.5656 17.2446 6.24679 17.9309 6.24679 18.7735C6.24679 19.6162 5.56055 20.2974 4.71789 20.3024ZM17.0298 20.3024C16.1821 20.3024 15.5009 19.6162 15.5009 18.7735C15.5009 17.9309 16.1872 17.2446 17.0298 17.2446C17.8775 17.2446 18.5587 17.9309 18.5587 18.7735C18.5638 19.6162 17.8775 20.2974 17.0298 20.3024ZM20.9959 17.4364H20.9908C20.9858 17.9965 20.5317 18.4506 19.9716 18.4556H19.5477C19.3661 17.063 18.0945 16.0841 16.7018 16.2657C15.5615 16.4121 14.6583 17.3153 14.5119 18.4556H7.23578C7.05413 17.063 5.78257 16.0841 4.38991 16.2657C3.24954 16.4121 2.34633 17.3153 2.2 18.4556H2.02844C1.46835 18.4506 1.01422 17.9965 1.00917 17.4364V16.1648C1.01422 15.7107 1.31697 15.3171 1.75596 15.196L5.24771 14.2423C5.35367 14.2121 5.44954 14.1515 5.52018 14.0607L7.60917 11.3258C7.89679 10.9524 8.34083 10.7355 8.81009 10.7355H13.0183C13.7349 11.7749 14.7289 12.5974 15.8844 13.107L16.4899 13.3694C16.6161 13.4249 16.7624 13.4249 16.8936 13.3694L17.5748 13.0767C17.6101 13.0616 17.6454 13.0465 17.6757 13.0313L18.2963 14.0254C18.3468 14.1111 18.4225 14.1767 18.5133 14.2171L20.4005 15.0699C20.7587 15.2313 20.9908 15.5896 20.9959 15.9832V17.4364Z" fill="white"/>
<path d="M19.2046 5.76523C19.028 5.54826 18.7151 5.51294 18.4931 5.6845L18.4881 5.68955L16.1266 7.61202L15.2688 6.60789C15.0871 6.39597 14.7693 6.36569 14.5573 6.54734C14.3454 6.729 14.3151 7.04688 14.4968 7.25881L14.5018 7.26386L15.6775 8.64138C15.6826 8.65147 15.6876 8.65652 15.6927 8.66156C15.6977 8.66661 15.7027 8.6767 15.7128 8.68175C15.7179 8.68679 15.728 8.69689 15.733 8.70193C15.7381 8.70698 15.7482 8.71202 15.7532 8.71707C15.7582 8.72211 15.7683 8.72716 15.7784 8.73221C15.7885 8.73725 15.7936 8.7423 15.7986 8.74734C15.8087 8.75239 15.8138 8.75744 15.8238 8.76248C15.8289 8.76753 15.839 8.77257 15.844 8.77257C15.8541 8.77762 15.8642 8.78267 15.8743 8.78267C15.8793 8.78771 15.8894 8.78771 15.8945 8.79276C15.9046 8.7978 15.9147 8.7978 15.9248 8.80285C15.9298 8.80285 15.9399 8.80789 15.9449 8.80789C15.955 8.80789 15.9651 8.81294 15.9752 8.81294C15.9803 8.81294 15.9904 8.81799 15.9954 8.81799C16.0105 8.81799 16.0206 8.81799 16.0358 8.81799C16.0408 8.81799 16.0459 8.81799 16.0509 8.81799C16.066 8.81799 16.0812 8.81799 16.0963 8.81799C16.1014 8.81799 16.1014 8.81799 16.1064 8.81799C16.1165 8.81799 16.1316 8.81294 16.1417 8.81294C16.1468 8.81294 16.1518 8.81294 16.1569 8.80789C16.167 8.80789 16.1771 8.80285 16.1871 8.80285C16.1922 8.80285 16.1972 8.7978 16.2023 8.7978C16.2124 8.7978 16.2174 8.79276 16.2275 8.78771C16.2326 8.78771 16.2376 8.78267 16.2477 8.78267C16.2527 8.77762 16.2628 8.77762 16.2679 8.77257C16.2729 8.76753 16.283 8.76753 16.2881 8.76248C16.2931 8.75744 16.3032 8.75744 16.3082 8.75239C16.3133 8.74734 16.3234 8.7423 16.3284 8.7423C16.3335 8.7423 16.3385 8.73221 16.3486 8.73221C16.3537 8.72716 16.3587 8.72211 16.3688 8.71707C16.3738 8.71202 16.3789 8.71202 16.3839 8.70698L19.1238 6.4767C19.3408 6.3001 19.3761 5.98725 19.2046 5.76523Z" fill="white"/>
</g>
<defs>
<clipPath id="clip0_178_11545">
<rect width="22" height="22" fill="white"/>
</clipPath>
</defs>
</svg>
