<svg width="18" height="18" viewBox="0 0 18 18" fill="none" xmlns="http://www.w3.org/2000/svg">
<g clip-path="url(#clip0_178_11534)">
<path d="M12.6 18H5.4C3.96829 17.9985 2.59564 17.4291 1.58327 16.4167C0.570894 15.4044 0.00148904 14.0317 0 12.6V5.4C0.00148904 3.96829 0.570894 2.59564 1.58327 1.58327C2.59564 0.570894 3.96829 0.00148904 5.4 0L12.6 0C14.0317 0.00148904 15.4044 0.570894 16.4167 1.58327C17.4291 2.59564 17.9985 3.96829 18 5.4V12.6C17.9985 14.0317 17.4291 15.4044 16.4167 16.4167C15.4044 17.4291 14.0317 17.9985 12.6 18ZM5.4 1.19813C4.28605 1.19961 3.21815 1.64279 2.43047 2.43047C1.64279 3.21815 1.19961 4.28605 1.19813 5.4V12.6C1.19961 13.7139 1.64279 14.7818 2.43047 15.5695C3.21815 16.3572 4.28605 16.8004 5.4 16.8019H12.6C13.7139 16.8004 14.7818 16.3572 15.5695 15.5695C16.3572 14.7818 16.8004 13.7139 16.8019 12.6V5.4C16.8004 4.28605 16.3572 3.21815 15.5695 2.43047C14.7818 1.64279 13.7139 1.19961 12.6 1.19813H5.4Z" fill="white"/>
<path d="M9.00003 10.1981C8.28801 10.1981 7.59199 9.98697 6.99997 9.5914C6.40796 9.19583 5.94654 8.63358 5.67406 7.97577C5.40158 7.31796 5.33029 6.59412 5.4692 5.89578C5.60811 5.19745 5.95097 4.55599 6.45444 4.05252C6.95791 3.54906 7.59937 3.20619 8.2977 3.06728C8.99603 2.92838 9.71987 2.99967 10.3777 3.27214C11.0355 3.54462 11.5977 4.00604 11.9933 4.59806C12.3889 5.19007 12.6 5.8861 12.6 6.59811C12.5985 7.55243 12.2188 8.46724 11.544 9.14205C10.8692 9.81686 9.95435 10.1966 9.00003 10.1981ZM9.00003 4.20186C8.52498 4.20186 8.0606 4.34273 7.66562 4.60665C7.27063 4.87057 6.96278 5.24569 6.78098 5.68458C6.59919 6.12346 6.55163 6.6064 6.6443 7.07232C6.73698 7.53824 6.96574 7.96621 7.30164 8.30212C7.63755 8.63802 8.06553 8.86678 8.53144 8.95946C8.99736 9.05213 9.4803 9.00457 9.91918 8.82278C10.3581 8.64099 10.7332 8.33313 10.9971 7.93814C11.261 7.54316 11.4019 7.07878 11.4019 6.60373C11.4019 5.96672 11.1488 5.35579 10.6984 4.90535C10.248 4.45491 9.63704 4.20186 9.00003 4.20186Z" fill="white"/>
<path d="M13.2075 13.8712C13.0575 13.8716 12.9129 13.8153 12.8025 13.7137C12.0295 12.9933 11.0129 12.5915 9.95627 12.5887H8.0494C6.99274 12.5915 5.97613 12.9933 5.20315 13.7137C5.14559 13.7712 5.07697 13.8165 5.00143 13.8467C4.9259 13.8769 4.84502 13.8915 4.76368 13.8896C4.68234 13.8877 4.60224 13.8694 4.5282 13.8356C4.45417 13.8019 4.38774 13.7535 4.33294 13.6933C4.27813 13.6332 4.23609 13.5626 4.20935 13.4858C4.1826 13.4089 4.17172 13.3275 4.17734 13.2463C4.18297 13.1651 4.205 13.0859 4.24209 13.0135C4.27918 12.9411 4.33057 12.877 4.39315 12.825C5.38977 11.908 6.69512 11.3999 8.0494 11.4019H9.95065C11.3084 11.4016 12.6162 11.9139 13.6125 12.8362C13.7001 12.9184 13.761 13.0249 13.7875 13.142C13.8141 13.2591 13.805 13.3814 13.7614 13.4933C13.7179 13.6052 13.6419 13.7015 13.5432 13.7699C13.4445 13.8382 13.3276 13.8755 13.2075 13.8769V13.8712Z" fill="white"/>
</g>
<defs>
<clipPath id="clip0_178_11534">
<rect width="18" height="18" fill="white"/>
</clipPath>
</defs>
</svg>
