<svg width="18" height="18" viewBox="0 0 18 18" fill="none" xmlns="http://www.w3.org/2000/svg">
<g clip-path="url(#clip0_178_11542)">
<path d="M7.41919 14.8246C3.33203 14.8246 0.00689697 11.4995 0.00689697 7.41229C0.00689697 3.32513 3.33203 0 7.41919 0C11.5064 0 14.8315 3.32513 14.8315 7.41229C14.8315 11.4995 11.5064 14.8246 7.41919 14.8246ZM7.41919 1.40517C4.10684 1.40517 1.41207 4.09995 1.41207 7.41229C1.41207 10.7246 4.10684 13.4194 7.41919 13.4194C10.7315 13.4194 13.4263 10.7246 13.4263 7.41229C13.4263 4.09995 10.7315 1.40517 7.41919 1.40517ZM17.7874 17.7942C18.0617 17.5198 18.0617 17.0749 17.7874 16.8006L14.6433 13.6565C14.3689 13.3821 13.924 13.3821 13.6497 13.6565C13.3753 13.9309 13.3753 14.3758 13.6497 14.6501L16.7937 17.7942C16.9309 17.9314 17.1107 18 17.2906 18C17.4704 18 17.6502 17.9314 17.7874 17.7942Z" fill="white"/>
</g>
<defs>
<clipPath id="clip0_178_11542">
<rect width="18" height="18" fill="white"/>
</clipPath>
</defs>
</svg>
