<svg width="18" height="18" viewBox="0 0 18 18" fill="none" xmlns="http://www.w3.org/2000/svg">
<g clip-path="url(#clip0_178_11559)">
<path d="M14.086 18C13.7274 18 13.3751 17.8968 13.067 17.7013L9.17694 15.2314C9.07055 15.1637 8.92948 15.1644 8.82387 15.2314L4.93307 17.7013C4.20724 18.1623 3.20636 18.0552 2.59086 17.468C2.21337 17.1071 2.00531 16.6185 2.00531 16.092V1.9056C2.0061 0.855079 2.86118 0 3.9117 0H14.0891C15.1396 0 15.9947 0.855079 15.9947 1.9056V16.092C15.9947 17.1441 15.1388 18 14.086 18ZM9.00041 13.604C9.36293 13.604 9.71678 13.7065 10.0226 13.9011L13.9126 16.3702C13.9685 16.4057 14.0261 16.423 14.0867 16.423C14.2207 16.423 14.4193 16.3182 14.4193 16.092V1.9056C14.4185 1.72434 14.2704 1.57618 14.0891 1.57618H3.9117C3.72965 1.57618 3.58228 1.72434 3.58228 1.9056V16.092C3.58228 16.1866 3.61538 16.2654 3.68079 16.3277C3.78876 16.4309 3.95347 16.4561 4.08902 16.3702L7.97904 13.9004C8.28403 13.7065 8.63788 13.604 9.00041 13.604Z" fill="white"/>
</g>
<defs>
<clipPath id="clip0_178_11559">
<rect width="18" height="18" fill="white"/>
</clipPath>
</defs>
</svg>
