<svg width="18" height="18" viewBox="0 0 18 18" fill="none" xmlns="http://www.w3.org/2000/svg">
<g clip-path="url(#clip0_178_11526)">
<path d="M0.6075 17.6962C0.447351 17.6962 0.293677 17.633 0.179909 17.5203C0.0661412 17.4076 0.00148286 17.2545 0 17.0944L0 9.29811C0 8.50296 0.315873 7.74038 0.87813 7.17812C1.44039 6.61586 2.20297 6.29999 2.99813 6.29999H9C9.79515 6.29999 10.5577 6.61586 11.12 7.17812C11.6823 7.74038 11.9981 8.50296 11.9981 9.29811V12.8981C11.9981 13.6933 11.6823 14.4558 11.12 15.0181C10.5577 15.5804 9.79515 15.8962 9 15.8962H3.20062L0.950625 17.5837C0.85046 17.6555 0.730694 17.6947 0.6075 17.6962ZM3.00375 7.50374C2.52636 7.50374 2.06852 7.69338 1.73096 8.03095C1.39339 8.36851 1.20375 8.82635 1.20375 9.30374V15.8962L2.64375 14.8162C2.7479 14.7391 2.87416 14.6977 3.00375 14.6981H9C9.47739 14.6981 9.93523 14.5085 10.2728 14.1709C10.6104 13.8333 10.8 13.3755 10.8 12.8981V9.29811C10.8 8.82072 10.6104 8.36289 10.2728 8.02532C9.93523 7.68776 9.47739 7.49811 9 7.49811L3.00375 7.50374Z" fill="white"/>
<path d="M17.3925 11.6944C17.2629 11.6952 17.1365 11.6537 17.0325 11.5763L14.7825 9.88878H13.7925C13.709 9.89688 13.6247 9.88742 13.545 9.861C13.4653 9.83459 13.392 9.79179 13.3299 9.73538C13.2677 9.67896 13.2181 9.61017 13.1841 9.53342C13.1501 9.45667 13.1325 9.37365 13.1325 9.28971C13.1325 9.20577 13.1501 9.12276 13.1841 9.04601C13.2181 8.96926 13.2677 8.90047 13.3299 8.84405C13.392 8.78763 13.4653 8.74484 13.545 8.71842C13.6247 8.69201 13.709 8.68255 13.7925 8.69065H14.9963C15.1259 8.68984 15.2523 8.73131 15.3563 8.80878L16.7963 9.88878V3.3019C16.7963 2.82451 16.6066 2.36668 16.2691 2.02911C15.9315 1.69154 15.4737 1.5019 14.9963 1.5019H9.00002C8.52263 1.5019 8.0648 1.69154 7.72723 2.02911C7.38966 2.36668 7.20002 2.82451 7.20002 3.3019V4.50003C7.20813 4.58358 7.19867 4.66789 7.17225 4.74757C7.14583 4.82724 7.10304 4.90051 7.04662 4.96267C6.99021 5.02482 6.92141 5.07449 6.84466 5.10847C6.76791 5.14246 6.6849 5.16002 6.60096 5.16002C6.51702 5.16002 6.43401 5.14246 6.35726 5.10847C6.28051 5.07449 6.21171 5.02482 6.1553 4.96267C6.09888 4.90051 6.05609 4.82724 6.02967 4.74757C6.00325 4.66789 5.99379 4.58358 6.0019 4.50003V3.3019C6.0019 2.50675 6.31777 1.74417 6.88003 1.18191C7.44229 0.61965 8.20487 0.303777 9.00002 0.303777H14.9963C15.3905 0.303038 15.7809 0.380041 16.1453 0.530379C16.5097 0.680718 16.8409 0.901441 17.1199 1.17992C17.3989 1.45839 17.6202 1.78915 17.7713 2.15327C17.9223 2.51739 18 2.90771 18 3.3019V11.0982C17.9971 11.2573 17.9318 11.409 17.8182 11.5205C17.7046 11.632 17.5517 11.6944 17.3925 11.6944Z" fill="white"/>
<path d="M7.19437 10.5131H3.59999C3.51645 10.5212 3.43213 10.5118 3.35245 10.4854C3.27278 10.4589 3.19951 10.4162 3.13736 10.3597C3.0752 10.3033 3.02554 10.2345 2.99155 10.1578C2.95756 10.081 2.94 9.99801 2.94 9.91407C2.94 9.83013 2.95756 9.74712 2.99155 9.67037C3.02554 9.59362 3.0752 9.52482 3.13736 9.46841C3.19951 9.41199 3.27278 9.3692 3.35245 9.34278C3.43213 9.31636 3.51645 9.3069 3.59999 9.31501H7.19437C7.27792 9.3069 7.36224 9.31636 7.44191 9.34278C7.52159 9.3692 7.59485 9.41199 7.65701 9.46841C7.71916 9.52482 7.76883 9.59362 7.80282 9.67037C7.8368 9.74712 7.85436 9.83013 7.85436 9.91407C7.85436 9.99801 7.8368 10.081 7.80282 10.1578C7.76883 10.2345 7.71916 10.3033 7.65701 10.3597C7.59485 10.4162 7.52159 10.4589 7.44191 10.4854C7.36224 10.5118 7.27792 10.5212 7.19437 10.5131Z" fill="white"/>
<path d="M5.4 12.9094H3.59999C3.51645 12.9175 3.43213 12.908 3.35245 12.8816C3.27278 12.8552 3.19951 12.8124 3.13736 12.756C3.0752 12.6996 3.02554 12.6308 2.99155 12.554C2.95756 12.4773 2.94 12.3943 2.94 12.3103C2.94 12.2264 2.95756 12.1434 2.99155 12.0666C3.02554 11.9899 3.0752 11.9211 3.13736 11.8646C3.19951 11.8082 3.27278 11.7654 3.35245 11.739C3.43213 11.7126 3.51645 11.7031 3.59999 11.7112H5.4C5.48354 11.7031 5.56786 11.7126 5.64754 11.739C5.72721 11.7654 5.80048 11.8082 5.86263 11.8646C5.92479 11.9211 5.97445 11.9899 6.00844 12.0666C6.04243 12.1434 6.05999 12.2264 6.05999 12.3103C6.05999 12.3943 6.04243 12.4773 6.00844 12.554C5.97445 12.6308 5.92479 12.6996 5.86263 12.756C5.80048 12.8124 5.72721 12.8552 5.64754 12.8816C5.56786 12.908 5.48354 12.9175 5.4 12.9094Z" fill="white"/>
</g>
<defs>
<clipPath id="clip0_178_11526">
<rect width="18" height="18" fill="white"/>
</clipPath>
</defs>
</svg>
