<svg width="22" height="22" viewBox="0 0 22 22" fill="none" xmlns="http://www.w3.org/2000/svg">
<path d="M20.1321 13.3583L19.3541 12.9692C19.6763 12.6589 19.8811 12.2281 19.8811 11.7466V2.77424C19.8811 1.8342 19.1173 1.0697 18.1784 1.0697H11.5979C10.659 1.0697 9.89521 1.8342 9.89521 2.77424V8.84441H8.74548C8.09923 8.84441 7.51783 9.20443 7.22771 9.78583L6.01977 12.2141C5.91825 12.402 5.75187 12.5345 5.5564 12.5851L2.20827 13.4225C1.4479 13.6207 0.916687 14.3009 0.916687 15.0777V17.4331C0.916687 18.3695 1.68417 19.1315 2.62696 19.1315H3.44348C3.78356 20.1815 4.77883 20.9302 5.92054 20.9302C7.05056 20.9302 8.03781 20.1886 8.3834 19.1315H13.0197C13.3586 20.1815 14.3488 20.9302 15.4839 20.9302C16.6183 20.9302 17.6074 20.1831 17.9481 19.1315H19.3726C20.3159 19.1315 21.0834 18.3695 21.0834 17.4331V14.8749C21.0834 14.2429 20.7098 13.6477 20.1321 13.3583ZM10.9088 2.77424C10.9088 2.39314 11.218 2.08399 11.5979 2.08399H18.1782C18.5586 2.08399 18.8678 2.39314 18.8678 2.77424V11.7463C18.8678 12.0223 18.7021 12.2569 18.467 12.3669C18.4644 12.3619 18.4601 12.3587 18.4578 12.3536L17.1658 9.78422C16.8811 9.21406 16.2855 8.84418 15.6484 8.84418H10.9088V2.77424ZM7.48346 18.5551C7.37644 19.3308 6.70406 19.9159 5.92054 19.9159C5.12877 19.9159 4.45158 19.3308 4.34571 18.5602C4.33517 18.4797 4.32417 18.4007 4.32417 18.3202C4.32417 17.448 5.04031 16.7381 5.92054 16.7381C6.7939 16.7381 7.50385 17.448 7.50385 18.3202C7.50385 18.3968 7.49331 18.4722 7.48346 18.5551ZM17.047 18.5551C16.94 19.3308 16.2683 19.9159 15.4841 19.9159C14.6999 19.9159 14.0282 19.3308 13.9224 18.5602C13.9118 18.4797 13.9013 18.4007 13.9013 18.3202C13.9013 17.448 14.6112 16.7381 15.4841 16.7381C16.3575 16.7381 17.0674 17.448 17.0674 18.3202C17.0674 18.4004 17.0562 18.4797 17.047 18.5551ZM20.0695 17.4331C20.0695 17.8103 19.7572 18.1172 19.3724 18.1172H18.06C17.9548 16.7818 16.8465 15.7235 15.4839 15.7235C14.122 15.7235 13.0135 16.7818 12.9078 18.1172H8.4966C8.39142 16.7818 7.28317 15.7235 5.92054 15.7235C4.55173 15.7235 3.43775 16.7818 3.33142 18.1172H2.62696C2.24287 18.1172 1.93052 17.8103 1.93052 17.4331V15.0777C1.93052 14.7574 2.14456 14.4865 2.45875 14.4035L5.80733 13.5662C5.95148 13.5288 6.08577 13.4672 6.21433 13.3945V13.45H13.9909V12.4357H7.04071L8.13429 10.2375C8.253 10.0001 8.48194 9.85893 8.74548 9.85893H15.6487C15.9046 9.85893 16.1448 10.0074 16.2603 10.2387L17.5469 12.798C17.699 13.1195 17.9488 13.3794 18.3107 13.5799L19.6781 14.264C19.9125 14.3815 20.0695 14.6265 20.0695 14.8752V17.4331Z" fill="white"/>
<path d="M12.2881 4.15723H17.4886V5.17152H12.2881V4.15723Z" fill="white"/>
<path d="M12.2881 6.69067H17.4886V7.70497H12.2881V6.69067Z" fill="white"/>
<path d="M4.12115 6.2738H4.51875C4.87809 6.2738 5.17073 6.56576 5.17073 6.92578C5.17073 7.2858 4.87809 7.57776 4.51875 7.57776H2.68725V8.59205H3.81292V9.78211H4.82607V8.52972C5.5924 8.38053 6.18434 7.73565 6.18434 6.92578C6.18434 6.00659 5.43725 5.25951 4.51875 5.25951H4.12115C3.76113 5.25951 3.46917 4.96755 3.46917 4.60753C3.46917 4.24888 3.76113 3.95693 4.12115 3.95693H5.95265V2.9424H4.8263V1.62378H3.81315V3.00474C3.04682 3.15415 2.45557 3.7988 2.45557 4.60753C2.45557 5.52672 3.20265 6.2738 4.12115 6.2738Z" fill="white"/>
</svg>
