<svg width="24" height="24" viewBox="0 0 24 24" fill="none" xmlns="http://www.w3.org/2000/svg">
<path fill-rule="evenodd" clip-rule="evenodd" d="M15.75 4.50903C13.9446 4.50903 12.4263 5.80309 12.0762 7.50903H2.25C1.83579 7.50903 1.5 7.84482 1.5 8.25903C1.5 8.67324 1.83579 9.00903 2.25 9.00903H12.0762C12.4263 10.715 13.9446 12.009 15.75 12.009C17.5554 12.009 19.0737 10.715 19.4238 9.00903H21.75C22.1642 9.00903 22.5 8.67324 22.5 8.25903C22.5 7.84482 22.1642 7.50903 21.75 7.50903H19.4238C19.0737 5.80309 17.5554 4.50903 15.75 4.50903ZM15.75 6.00903C17.0015 6.00903 18 7.00753 18 8.25903C18 9.51054 17.0015 10.509 15.75 10.509C14.4985 10.509 13.5 9.51054 13.5 8.25903C13.5 7.00753 14.4985 6.00903 15.75 6.00903Z" fill="#050B20"/>
<path fill-rule="evenodd" clip-rule="evenodd" d="M8.25 12.009C6.44461 12.009 4.92634 13.3031 4.57617 15.009H2.25C1.83579 15.009 1.5 15.3448 1.5 15.759C1.5 16.1732 1.83579 16.509 2.25 16.509H4.57617C4.92634 18.215 6.44461 19.509 8.25 19.509C10.0554 19.509 11.5737 18.215 11.9238 16.509H21.75C22.1642 16.509 22.5 16.1732 22.5 15.759C22.5 15.3448 22.1642 15.009 21.75 15.009H11.9238C11.5737 13.3031 10.0554 12.009 8.25 12.009ZM8.25 13.509C9.5015 13.509 10.5 14.5075 10.5 15.759C10.5 17.0105 9.5015 18.009 8.25 18.009C6.9985 18.009 6 17.0105 6 15.759C6 14.5075 6.9985 13.509 8.25 13.509Z" fill="#050B20"/>
</svg>
