<svg width="20" height="20" viewBox="0 0 20 20" fill="none" xmlns="http://www.w3.org/2000/svg">
<g clip-path="url(#clip0_178_11681)">
<path d="M18.922 12.865L17.3349 12.1448L16.8807 11.4109C18.6514 10.2916 19.7248 8.34667 19.7248 6.25034V3.23658C19.7202 3.06686 19.6239 2.9109 19.4725 2.83291L15.3945 0.663189C15.2569 0.589795 15.0917 0.589795 14.9587 0.667776L11.0092 2.83291C10.8624 2.91548 10.7752 3.06686 10.7798 3.23658V6.30998C10.7752 7.18154 10.9541 8.04851 11.3119 8.84667H8.00459C7.29358 8.84667 6.61927 9.18154 6.18349 9.74576L4.38073 12.1081L1.35321 12.9338C0.555046 13.1494 0.00458716 13.8742 0 14.6999V15.8558C0.00458716 16.8696 0.830275 17.6907 1.84404 17.6999H2.06422C2.40367 18.9292 3.6789 19.6494 4.90826 19.3054C5.68807 19.0898 6.29817 18.4797 6.51376 17.6999H13.2569C13.5963 18.9292 14.8716 19.6494 16.1009 19.3054C16.8807 19.0898 17.4908 18.4797 17.7064 17.6999H18.156C19.1697 17.6953 19.9954 16.8742 20 15.8558V14.5302C19.9954 13.81 19.5734 13.1632 18.922 12.865ZM11.6972 3.50723L15.1972 1.58521L18.8073 3.51181V6.25034C18.8028 8.34667 17.5459 10.232 15.6147 11.0439C15.6147 11.0439 15.6101 11.0439 15.6055 11.0439L15.1651 11.232L14.8073 11.0714C12.9174 10.2412 11.6972 8.3742 11.6972 6.30539V3.50723ZM4.28899 18.4568C3.51835 18.4568 2.89908 17.8329 2.89908 17.0669C2.89908 16.2962 3.52294 15.6769 4.28899 15.6769C5.05963 15.6769 5.6789 16.3008 5.6789 17.0669C5.6789 17.8329 5.05505 18.4522 4.28899 18.4568ZM15.4817 18.4568C14.711 18.4568 14.0917 17.8329 14.0917 17.0669C14.0917 16.3008 14.7156 15.6769 15.4817 15.6769C16.2523 15.6769 16.8716 16.3008 16.8716 17.0669C16.8761 17.8329 16.2523 18.4522 15.4817 18.4568ZM19.0872 15.8513H19.0826C19.078 16.3604 18.6651 16.7733 18.156 16.7779H17.7706C17.6055 15.5118 16.4495 14.6219 15.1835 14.787C14.1468 14.9201 13.3257 15.7412 13.1927 16.7779H6.57798C6.41284 15.5118 5.25688 14.6219 3.99083 14.787C2.95413 14.9201 2.13303 15.7412 2 16.7779H1.84404C1.33486 16.7733 0.922018 16.3604 0.917431 15.8513V14.6953C0.922018 14.2825 1.19725 13.9247 1.59633 13.8146L4.77064 12.9476C4.86697 12.9201 4.95413 12.865 5.01835 12.7825L6.91743 10.2962C7.1789 9.95677 7.58257 9.75952 8.00917 9.75952H11.8349C12.4862 10.7045 13.3899 11.4522 14.4404 11.9155L14.9908 12.154C15.1055 12.2045 15.2385 12.2045 15.3578 12.154L15.9771 11.888C16.0092 11.8742 16.0413 11.8604 16.0688 11.8467L16.633 12.7503C16.6789 12.8283 16.7477 12.888 16.8303 12.9247L18.5459 13.6999C18.8716 13.8467 19.0826 14.1724 19.0872 14.5302V15.8513Z" fill="#405FF2"/>
<path d="M17.4587 5.24113C17.2982 5.04388 17.0138 5.01177 16.8119 5.16773L16.8073 5.17232L14.6605 6.92003L13.8807 6.00718C13.7156 5.81452 13.4266 5.787 13.2339 5.95214C13.0413 6.11727 13.0138 6.40626 13.1789 6.59893L13.1835 6.60351L14.2523 7.85581C14.2569 7.86498 14.2615 7.86957 14.2661 7.87415C14.2706 7.87874 14.2752 7.88792 14.2844 7.8925C14.289 7.89709 14.2982 7.90626 14.3028 7.91085C14.3073 7.91544 14.3165 7.92003 14.3211 7.92461C14.3257 7.9292 14.3349 7.93379 14.344 7.93838C14.3532 7.94296 14.3578 7.94755 14.3624 7.95214C14.3716 7.95672 14.3761 7.96131 14.3853 7.9659C14.3899 7.97048 14.3991 7.97507 14.4037 7.97507C14.4128 7.97966 14.422 7.98425 14.4312 7.98425C14.4358 7.98883 14.445 7.98883 14.4495 7.99342C14.4587 7.99801 14.4679 7.99801 14.4771 8.0026C14.4817 8.0026 14.4908 8.00718 14.4954 8.00718C14.5046 8.00718 14.5138 8.01177 14.5229 8.01177C14.5275 8.01177 14.5367 8.01636 14.5413 8.01636C14.555 8.01636 14.5642 8.01636 14.578 8.01636C14.5826 8.01636 14.5872 8.01636 14.5917 8.01636C14.6055 8.01636 14.6193 8.01636 14.633 8.01636C14.6376 8.01636 14.6376 8.01636 14.6422 8.01636C14.6514 8.01636 14.6651 8.01177 14.6743 8.01177C14.6789 8.01177 14.6835 8.01177 14.6881 8.00718C14.6972 8.00718 14.7064 8.0026 14.7156 8.0026C14.7202 8.0026 14.7248 7.99801 14.7294 7.99801C14.7385 7.99801 14.7431 7.99342 14.7523 7.98883C14.7569 7.98883 14.7615 7.98425 14.7706 7.98425C14.7752 7.97966 14.7844 7.97966 14.789 7.97507C14.7936 7.97048 14.8028 7.97048 14.8073 7.9659C14.8119 7.96131 14.8211 7.96131 14.8257 7.95672C14.8303 7.95214 14.8394 7.94755 14.844 7.94755C14.8486 7.94755 14.8532 7.93838 14.8624 7.93838C14.867 7.93379 14.8716 7.9292 14.8807 7.92461C14.8853 7.92003 14.8899 7.92003 14.8945 7.91544L17.3853 5.88792C17.5826 5.72737 17.6147 5.44296 17.4587 5.24113Z" fill="#405FF2"/>
</g>
<defs>
<clipPath id="clip0_178_11681">
<rect width="20" height="20" fill="white"/>
</clipPath>
</defs>
</svg>
