<svg width="16" height="16" viewBox="0 0 16 16" fill="none" xmlns="http://www.w3.org/2000/svg">
<g clip-path="url(#clip0_178_11693)">
<path d="M12.5209 16C12.2021 16 11.889 15.9082 11.6151 15.7345L8.15728 13.5391C8.06271 13.4788 7.93732 13.4795 7.84345 13.5391L4.38495 15.7345C3.73977 16.1443 2.8501 16.049 2.30299 15.5271C1.96744 15.2063 1.7825 14.772 1.7825 14.304V1.69387C1.7832 0.76007 2.54327 0 3.47707 0H12.5237C13.4575 0 14.2175 0.76007 14.2175 1.69387V14.304C14.2175 15.2392 13.4568 16 12.5209 16ZM8.00036 12.0925C8.32261 12.0925 8.63714 12.1835 8.90895 12.3566L12.3667 14.5513C12.4165 14.5828 12.4676 14.5982 12.5216 14.5982C12.6406 14.5982 12.8172 14.5051 12.8172 14.304V1.69387C12.8165 1.53275 12.6848 1.40105 12.5237 1.40105H3.47707C3.31525 1.40105 3.18425 1.53275 3.18425 1.69387V14.304C3.18425 14.3881 3.21367 14.4581 3.27182 14.5135C3.36779 14.6053 3.5142 14.6277 3.63469 14.5513L7.09248 12.3559C7.36359 12.1835 7.67812 12.0925 8.00036 12.0925Z" fill="#405FF2"/>
</g>
<defs>
<clipPath id="clip0_178_11693">
<rect width="16" height="16" fill="white"/>
</clipPath>
</defs>
</svg>
