<svg width="16" height="16" viewBox="0 0 16 16" fill="none" xmlns="http://www.w3.org/2000/svg">
<path d="M7.29313 1.2876C3.98732 1.2876 1.29443 3.98048 1.29443 7.28631C1.29443 10.5921 3.98732 13.2902 7.29313 13.2902C8.70514 13.2902 10.0038 12.7954 11.0301 11.9738L13.5288 14.4712C13.6549 14.5921 13.8233 14.6588 13.998 14.657C14.1727 14.6552 14.3397 14.5851 14.4633 14.4617C14.5869 14.3382 14.6572 14.1713 14.6592 13.9967C14.6613 13.822 14.5948 13.6535 14.4741 13.5272L11.9754 11.0285C12.7977 10.0006 13.2931 8.69995 13.2931 7.28631C13.2931 3.98048 10.5989 1.2876 7.29313 1.2876ZM7.29313 2.62095C9.87836 2.62095 11.9585 4.70108 11.9585 7.28631C11.9585 9.87153 9.87836 11.9569 7.29313 11.9569C4.70791 11.9569 2.62777 9.87153 2.62777 7.28631C2.62777 4.70108 4.70791 2.62095 7.29313 2.62095Z" fill="#050B20"/>
</svg>
